<?xml version="1.0" encoding="utf-8"?>
<!-- Generator: Adobe Illustrator 16.0.3, SVG Export Plug-In . SVG Version: 6.00 Build 0)  -->
<!DOCTYPE svg PUBLIC "-//W3C//DTD SVG 1.1//EN" "http://www.w3.org/Graphics/SVG/1.1/DTD/svg11.dtd">
<svg version="1.1" id="Layer_1" xmlns="http://www.w3.org/2000/svg" xmlns:xlink="http://www.w3.org/1999/xlink" x="0px" y="0px"
	 width="170.08px" height="28.35px" viewBox="0 0 170.08 28.35" enable-background="new 0 0 170.08 28.35" xml:space="preserve">
<g>
	<path d="M5.43,25.752v-5.783h2v-1.72h-2v-2.742h2.048v-1.653H3.05v11.898H5.43L5.43,25.752z M10.208,17.62
		c0.057-0.085,0.149-0.13,0.278-0.13c0.14,0,0.241,0.046,0.302,0.139c0.062,0.091,0.093,0.239,0.093,0.442v5.759
		c0,0.212-0.029,0.358-0.088,0.45c-0.06,0.088-0.157,0.131-0.292,0.131c-0.134,0-0.23-0.043-0.29-0.131
		c-0.059-0.092-0.088-0.238-0.088-0.45v-5.759C10.124,17.857,10.152,17.706,10.208,17.62L10.208,17.62z M8.011,23.273
		c0,0.979,0.192,1.676,0.577,2.09c0.385,0.415,1.018,0.621,1.899,0.621c0.881,0,1.515-0.206,1.9-0.621
		c0.384-0.414,0.577-1.11,0.577-2.09v-4.556c0-0.985-0.193-1.682-0.577-2.094c-0.385-0.411-1.019-0.617-1.9-0.617
		c-0.882,0-1.515,0.206-1.899,0.617c-0.385,0.412-0.577,1.108-0.577,2.094V23.273L8.011,23.273z M12.302,15.57v-1.62h-1.468v1.62
		H12.302L12.302,15.57z M10.124,15.57v-1.62H8.656v1.62H10.124L10.124,15.57z M15.722,25.752V18.37c0-0.194,0.031-0.336,0.093-0.427
		c0.062-0.092,0.157-0.137,0.287-0.137c0.14,0,0.237,0.037,0.294,0.115c0.056,0.08,0.084,0.228,0.084,0.448v2.984h2.114v-3.679
		c0-0.537-0.115-0.942-0.343-1.213c-0.229-0.272-0.571-0.406-1.028-0.406c-0.328,0-0.616,0.077-0.863,0.236
		c-0.248,0.159-0.46,0.405-0.638,0.737h-0.032v-0.797h-2.065v9.519H15.722L15.722,25.752z M24.321,13.854h-2.098v3.176h-0.032
		c-0.161-0.326-0.363-0.571-0.605-0.733c-0.241-0.16-0.53-0.24-0.863-0.24c-0.452,0-0.79,0.134-1.016,0.402
		c-0.226,0.269-0.339,0.675-0.339,1.217v6.703c0,0.538,0.111,0.939,0.334,1.207c0.224,0.265,0.563,0.398,1.021,0.398
		c0.36,0,0.666-0.088,0.916-0.265c0.25-0.18,0.445-0.441,0.584-0.792h0.032v0.824h2.065V13.854L24.321,13.854z M21.464,18.37
		c0-0.221,0.029-0.368,0.085-0.448c0.057-0.078,0.155-0.115,0.294-0.115c0.129,0,0.225,0.045,0.287,0.137
		c0.062,0.091,0.093,0.232,0.093,0.427v5.3c0,0.192-0.031,0.34-0.093,0.436c-0.062,0.097-0.157,0.145-0.287,0.145
		c-0.14,0-0.237-0.04-0.294-0.125c-0.056-0.083-0.085-0.233-0.085-0.455V18.37L21.464,18.37z M27.168,17.624
		c0.059-0.088,0.155-0.134,0.291-0.134c0.134,0,0.23,0.046,0.29,0.134c0.059,0.089,0.088,0.238,0.088,0.447v1.799h-0.758v-1.799
		C27.079,17.862,27.108,17.713,27.168,17.624L27.168,17.624z M27.079,21.291h2.855v-3.235c0-0.64-0.22-1.142-0.662-1.504
		c-0.44-0.364-1.051-0.545-1.83-0.545c-0.888,0-1.52,0.202-1.896,0.606c-0.376,0.402-0.565,1.104-0.565,2.104v4.556
		c0,0.99,0.191,1.688,0.573,2.099c0.382,0.409,1.016,0.612,1.904,0.612c0.785,0,1.394-0.189,1.827-0.567
		c0.432-0.38,0.649-0.915,0.649-1.603v-1.767h-2.098v1.782c0,0.212-0.029,0.358-0.088,0.45c-0.06,0.088-0.156,0.131-0.29,0.131
		c-0.135,0-0.231-0.043-0.291-0.131c-0.06-0.092-0.089-0.238-0.089-0.45V21.291L27.079,21.291z M32.693,25.752V18.37
		c0-0.194,0.031-0.336,0.092-0.427c0.063-0.092,0.157-0.137,0.287-0.137c0.14,0,0.238,0.037,0.295,0.115
		c0.056,0.08,0.084,0.228,0.084,0.448v2.984h2.114v-3.679c0-0.537-0.115-0.942-0.343-1.213c-0.228-0.272-0.571-0.406-1.028-0.406
		c-0.328,0-0.616,0.077-0.863,0.236s-0.459,0.405-0.637,0.737h-0.033v-0.797h-2.064v9.519H32.693L32.693,25.752z M39.872,25.752
		l1.372-9.519h-1.984l-0.428,4.404c-0.038,0.401-0.071,0.846-0.101,1.325c-0.029,0.481-0.05,0.984-0.06,1.506h-0.065
		c-0.01-0.484-0.027-0.939-0.048-1.359c-0.021-0.423-0.051-0.811-0.089-1.167l-0.459-4.709h-2.113l1.371,9.519H39.872L39.872,25.752
		z M43.566,17.624c0.06-0.088,0.156-0.134,0.29-0.134c0.135,0,0.231,0.046,0.291,0.134c0.059,0.089,0.089,0.238,0.089,0.447v1.799
		h-0.758v-1.799C43.478,17.862,43.507,17.713,43.566,17.624L43.566,17.624z M43.478,21.291h2.856v-3.235
		c0-0.64-0.221-1.142-0.662-1.504c-0.442-0.364-1.052-0.545-1.831-0.545c-0.887,0-1.52,0.202-1.896,0.606
		c-0.377,0.402-0.565,1.104-0.565,2.104v4.556c0,0.99,0.19,1.688,0.573,2.099c0.382,0.409,1.017,0.612,1.903,0.612
		c0.786,0,1.395-0.189,1.827-0.567c0.433-0.38,0.65-0.915,0.65-1.603v-1.767h-2.098v1.782c0,0.212-0.03,0.358-0.089,0.45
		c-0.059,0.088-0.156,0.131-0.291,0.131c-0.134,0-0.23-0.043-0.29-0.131c-0.059-0.092-0.089-0.238-0.089-0.45V21.291L43.478,21.291z
		 M49.092,25.752V18.37c0-0.194,0.031-0.336,0.092-0.427c0.062-0.092,0.158-0.137,0.287-0.137c0.139,0,0.237,0.037,0.293,0.115
		c0.057,0.08,0.085,0.228,0.085,0.448v2.984h2.114v-3.679c0-0.537-0.115-0.942-0.343-1.213c-0.229-0.272-0.571-0.406-1.029-0.406
		c-0.328,0-0.616,0.077-0.862,0.236c-0.248,0.159-0.46,0.405-0.638,0.737H49.06v-0.797h-2.065v9.519H49.092L49.092,25.752z
		 M54.924,17.624c0.058-0.088,0.155-0.134,0.29-0.134c0.135,0,0.231,0.046,0.291,0.134c0.06,0.089,0.089,0.238,0.089,0.447v1.799
		h-0.758v-1.799C54.835,17.862,54.865,17.713,54.924,17.624L54.924,17.624z M54.835,21.291h2.854v-3.235
		c0-0.64-0.219-1.142-0.661-1.504c-0.441-0.364-1.052-0.545-1.83-0.545c-0.888,0-1.52,0.202-1.896,0.606
		c-0.377,0.402-0.565,1.104-0.565,2.104v4.556c0,0.99,0.191,1.688,0.573,2.099c0.381,0.409,1.016,0.612,1.903,0.612
		c0.785,0,1.395-0.189,1.827-0.567c0.432-0.38,0.649-0.915,0.649-1.603v-1.767h-2.097v1.782c0,0.212-0.029,0.358-0.089,0.45
		c-0.059,0.088-0.156,0.131-0.291,0.131c-0.134,0-0.231-0.043-0.29-0.131c-0.06-0.092-0.089-0.238-0.089-0.45V21.291L54.835,21.291z
		 M60.449,25.752v-9.519h-2.097v9.519H60.449L60.449,25.752z M60.449,15.66v-1.806h-2.097v1.806H60.449L60.449,15.66z M63.24,25.752
		V18.37c0-0.194,0.031-0.336,0.092-0.427c0.062-0.092,0.158-0.137,0.286-0.137c0.141,0,0.238,0.037,0.296,0.115
		c0.056,0.08,0.084,0.228,0.084,0.448v7.382h2.113v-8.076c0-0.537-0.115-0.942-0.343-1.213c-0.229-0.272-0.573-0.406-1.029-0.406
		c-0.328,0-0.616,0.077-0.863,0.236s-0.46,0.405-0.637,0.737h-0.032v-0.797h-2.066v9.519H63.24L63.24,25.752z M72.355,25.752v-5.783
		h2v-1.72h-2v-2.742h2.048v-1.653h-4.427v11.898H72.355L72.355,25.752z M77.065,25.752V18.37c0-0.194,0.032-0.336,0.093-0.427
		c0.062-0.092,0.157-0.137,0.287-0.137c0.139,0,0.238,0.037,0.294,0.115c0.056,0.08,0.084,0.228,0.084,0.448v2.984h2.113v-3.679
		c0-0.537-0.114-0.942-0.342-1.213c-0.228-0.272-0.57-0.406-1.028-0.406c-0.329,0-0.615,0.077-0.863,0.236s-0.46,0.405-0.638,0.737
		h-0.032v-0.797h-2.064v9.519H77.065L77.065,25.752z M82.897,17.624c0.06-0.088,0.156-0.134,0.29-0.134s0.23,0.046,0.291,0.134
		c0.059,0.089,0.09,0.238,0.09,0.447v1.799h-0.759v-1.799C82.809,17.862,82.838,17.713,82.897,17.624L82.897,17.624z M82.809,21.291
		h2.855v-3.235c0-0.64-0.221-1.142-0.663-1.504c-0.44-0.364-1.052-0.545-1.831-0.545c-0.887,0-1.52,0.202-1.896,0.606
		c-0.376,0.402-0.563,1.104-0.563,2.104v4.556c0,0.99,0.19,1.688,0.571,2.099c0.381,0.409,1.017,0.612,1.904,0.612
		c0.786,0,1.395-0.189,1.828-0.567c0.432-0.38,0.649-0.915,0.649-1.603v-1.767h-2.097v1.782c0,0.212-0.031,0.358-0.09,0.45
		c-0.06,0.088-0.157,0.131-0.291,0.131s-0.23-0.043-0.29-0.131c-0.059-0.092-0.088-0.238-0.088-0.45V21.291L82.809,21.291z
		 M88.424,25.752v-9.519h-2.097v9.519H88.424L88.424,25.752z M88.424,15.66v-1.806h-2.097v1.806H88.424L88.424,15.66z
		 M91.271,17.624c0.06-0.088,0.155-0.134,0.289-0.134c0.136,0,0.231,0.046,0.292,0.134c0.059,0.089,0.088,0.238,0.088,0.447v1.799
		h-0.759v-1.799C91.181,17.862,91.211,17.713,91.271,17.624L91.271,17.624z M91.181,21.291h2.855v-3.235
		c0-0.64-0.221-1.142-0.661-1.504c-0.441-0.364-1.051-0.545-1.831-0.545c-0.888,0-1.519,0.202-1.895,0.606
		c-0.376,0.402-0.565,1.104-0.565,2.104v4.556c0,0.99,0.191,1.688,0.573,2.099c0.381,0.409,1.016,0.612,1.902,0.612
		c0.785,0,1.396-0.189,1.828-0.567c0.432-0.38,0.648-0.915,0.648-1.603v-1.767h-2.097v1.782c0,0.212-0.029,0.358-0.088,0.45
		c-0.061,0.088-0.156,0.131-0.292,0.131c-0.134,0-0.229-0.043-0.289-0.131c-0.06-0.092-0.09-0.238-0.09-0.45V21.291L91.181,21.291z
		 M99.739,25.752v-7.076c0-0.235-0.01-0.54-0.028-0.911c-0.019-0.37-0.044-0.804-0.076-1.299h0.064
		c0.075,0.608,0.149,1.168,0.222,1.678c0.072,0.511,0.133,0.894,0.183,1.146l1.217,6.462h2.792V13.854h-1.864l0.016,4.928
		c0,0.274,0.01,0.724,0.028,1.35c0.019,0.629,0.047,1.359,0.084,2.2h-0.096c-0.038-0.72-0.083-1.362-0.138-1.922
		c-0.053-0.56-0.118-1.065-0.193-1.516l-0.839-5.041h-3.258v11.898H99.739L99.739,25.752z M106.991,17.624
		c0.059-0.088,0.155-0.134,0.29-0.134c0.134,0,0.232,0.046,0.291,0.134c0.059,0.089,0.088,0.238,0.088,0.447v1.799h-0.759v-1.799
		C106.901,17.862,106.933,17.713,106.991,17.624L106.991,17.624z M106.901,21.291h2.857v-3.235c0-0.64-0.221-1.142-0.661-1.504
		c-0.441-0.364-1.052-0.545-1.832-0.545c-0.887,0-1.519,0.202-1.896,0.606c-0.376,0.402-0.565,1.104-0.565,2.104v4.556
		c0,0.99,0.191,1.688,0.573,2.099c0.381,0.409,1.017,0.612,1.903,0.612c0.784,0,1.395-0.189,1.827-0.567
		c0.434-0.38,0.65-0.915,0.65-1.603v-1.767h-2.099v1.782c0,0.212-0.029,0.358-0.088,0.45c-0.059,0.088-0.157,0.131-0.291,0.131
		c-0.135,0-0.231-0.043-0.29-0.131c-0.059-0.092-0.09-0.238-0.09-0.45V21.291L106.901,21.291z M110.621,17.757v6.325
		c0,0.645,0.106,1.084,0.318,1.319c0.213,0.232,0.574,0.351,1.084,0.351h1.323v-1.533h-0.072c-0.215,0-0.358-0.041-0.432-0.118
		c-0.072-0.077-0.108-0.263-0.108-0.56v-5.784h0.612v-1.523h-0.612v-1.767h-2.113v1.767h-0.532v1.523H110.621L110.621,17.757z
		 M117.493,25.752v-1.605h-1.815l1.815-6.543v-1.37h-3.944v1.573h1.678l-1.733,6.291v1.654H117.493L117.493,25.752z M121.14,25.752
		l0.564-4.51V21.21c0.081-0.642,0.134-1.313,0.161-2.018h0.08c0.016,0.522,0.033,0.985,0.048,1.39
		c0.018,0.401,0.031,0.671,0.042,0.805l0.395,4.365h2.429l1.42-9.519h-2.034l-0.427,4.693c0,0.037-0.008,0.134-0.024,0.283
		c-0.069,0.747-0.122,1.473-0.153,2.176h-0.089c-0.021-0.455-0.041-0.929-0.061-1.418c-0.019-0.489-0.03-0.758-0.036-0.806
		l-0.428-4.929h-2.202l-0.523,4.678c-0.007,0.026-0.012,0.069-0.016,0.128c-0.093,0.776-0.148,1.558-0.17,2.347h-0.081
		c0-0.417-0.005-0.815-0.016-1.19c-0.011-0.377-0.026-0.723-0.048-1.033l-0.396-4.929h-2.13l1.299,9.519H121.14L121.14,25.752z
		 M128.601,17.624c0.059-0.088,0.156-0.134,0.29-0.134s0.231,0.046,0.291,0.134c0.059,0.089,0.088,0.238,0.088,0.447v1.799h-0.757
		v-1.799C128.513,17.862,128.542,17.713,128.601,17.624L128.601,17.624z M128.513,21.291h2.855v-3.235
		c0-0.64-0.222-1.142-0.663-1.504c-0.439-0.364-1.05-0.545-1.83-0.545c-0.887,0-1.519,0.202-1.896,0.606
		c-0.376,0.402-0.564,1.104-0.564,2.104v4.556c0,0.99,0.191,1.688,0.573,2.099c0.383,0.409,1.017,0.612,1.903,0.612
		c0.786,0,1.395-0.189,1.827-0.567c0.434-0.38,0.65-0.915,0.65-1.603v-1.767h-2.099v1.782c0,0.212-0.029,0.358-0.088,0.45
		c-0.06,0.088-0.157,0.131-0.291,0.131s-0.231-0.043-0.29-0.131c-0.059-0.092-0.088-0.238-0.088-0.45V21.291L128.513,21.291z
		 M134.125,25.752V18.37c0-0.194,0.032-0.336,0.094-0.427c0.062-0.092,0.157-0.137,0.287-0.137c0.139,0,0.236,0.037,0.294,0.115
		c0.057,0.08,0.084,0.228,0.084,0.448v2.984h2.113v-3.679c0-0.537-0.114-0.942-0.343-1.213c-0.228-0.272-0.571-0.406-1.029-0.406
		c-0.326,0-0.615,0.077-0.861,0.236c-0.247,0.159-0.46,0.405-0.639,0.737h-0.031v-0.797h-2.065v9.519H134.125L134.125,25.752z
		 M139.594,25.752v-4.985h0.034l0.829,4.985h2.212l-1.041-5.406l1.041-4.112h-2.146l-0.895,4.145h-0.034v-6.524h-2.097v11.898
		H139.594L139.594,25.752z M145.104,17.624c0.059-0.088,0.154-0.134,0.29-0.134c0.134,0,0.231,0.046,0.29,0.134
		c0.059,0.089,0.089,0.238,0.089,0.447v1.799h-0.758v-1.799C145.016,17.862,145.045,17.713,145.104,17.624L145.104,17.624z
		 M145.016,21.291h2.855v-3.235c0-0.64-0.221-1.142-0.662-1.504c-0.44-0.364-1.051-0.545-1.831-0.545
		c-0.887,0-1.519,0.202-1.895,0.606c-0.377,0.402-0.565,1.104-0.565,2.104v4.556c0,0.99,0.191,1.688,0.572,2.099
		c0.383,0.409,1.017,0.612,1.904,0.612c0.785,0,1.395-0.189,1.826-0.567c0.434-0.38,0.65-0.915,0.65-1.603v-1.767h-2.098v1.782
		c0,0.212-0.03,0.358-0.089,0.45c-0.059,0.088-0.156,0.131-0.29,0.131c-0.136,0-0.231-0.043-0.29-0.131
		c-0.06-0.092-0.089-0.238-0.089-0.45V21.291L145.016,21.291z M153.824,17.624c0.059-0.088,0.155-0.134,0.29-0.134
		c0.134,0,0.231,0.046,0.29,0.134c0.06,0.089,0.089,0.238,0.089,0.447v1.799h-0.759v-1.799
		C153.734,17.862,153.766,17.713,153.824,17.624L153.824,17.624z M153.734,21.291h2.855v-3.235c0-0.64-0.22-1.142-0.661-1.504
		c-0.44-0.364-1.052-0.545-1.83-0.545c-0.889,0-1.521,0.202-1.896,0.606c-0.376,0.402-0.564,1.104-0.564,2.104v4.556
		c0,0.99,0.191,1.688,0.572,2.099c0.382,0.409,1.016,0.612,1.904,0.612c0.784,0,1.395-0.189,1.826-0.567
		c0.433-0.38,0.649-0.915,0.649-1.603v-1.767h-2.097v1.782c0,0.212-0.029,0.358-0.089,0.45c-0.059,0.088-0.156,0.131-0.29,0.131
		c-0.135,0-0.231-0.043-0.29-0.131c-0.059-0.092-0.09-0.238-0.09-0.45V21.291L153.734,21.291z M159.567,25.752v-2.43h-2.186v2.43
		H159.567L159.567,25.752z M164.633,25.752l1.637-11.898h-2.113l-0.694,6.96c-0.043,0.394-0.082,0.795-0.116,1.207
		c-0.035,0.409-0.068,0.846-0.101,1.301h-0.056c-0.021-0.407-0.043-0.79-0.066-1.146c-0.02-0.354-0.04-0.637-0.056-0.846
		l-0.467-7.477h-2.445l1.323,11.898H164.633L164.633,25.752z M168.125,25.752v-2.43h-2.187v2.43H168.125L168.125,25.752z"/>
	<polygon fill="#E6007E" points="3.05,3.059 3.05,6.511 168.125,6.511 168.125,3.059 3.05,3.059 	"/>
</g>
</svg>
