<?xml version="1.0" encoding="UTF-8"?>
<!-- Generator: Adobe Illustrator 16.0.0, SVG Export Plug-In . SVG Version: 6.00 Build 0)  -->
<!DOCTYPE svg PUBLIC "-//W3C//DTD SVG 1.1//EN" "http://www.w3.org/Graphics/SVG/1.1/DTD/svg11.dtd">
<svg version="1.1" id="Ebene_1" xmlns="http://www.w3.org/2000/svg" xmlns:xlink="http://www.w3.org/1999/xlink" x="0px" y="0px" width="160.684px" height="39.021px" viewBox="0 0 160.684 39.021" enable-background="new 0 0 160.684 39.021" xml:space="preserve">
<g>
	<path fill="#CA2D3A" d="M0,8.507h8.049v3.233c1.156-1.362,2.321-2.333,3.498-2.909c1.178-0.575,2.597-0.864,4.262-0.864   c1.789,0,3.206,0.315,4.249,0.949c1.043,0.633,1.897,1.573,2.559,2.824c1.349-1.462,2.579-2.456,3.69-2.982   c1.111-0.527,2.482-0.791,4.113-0.791c2.404,0,4.28,0.715,5.63,2.145c1.351,1.432,2.026,3.667,2.026,6.71V30.92h-8.642V18.087   c0-1.019-0.196-1.774-0.586-2.271c-0.573-0.777-1.285-1.167-2.137-1.167c-1.006,0-1.817,0.369-2.431,1.104   c-0.615,0.734-0.921,1.915-0.921,3.542V30.92h-8.642V18.544c0-0.988-0.057-1.657-0.169-2.012c-0.183-0.562-0.5-1.018-0.949-1.363   c-0.45-0.347-0.978-0.52-1.582-0.52c-0.985,0-1.793,0.375-2.426,1.122c-0.633,0.748-0.95,1.974-0.95,3.681V30.92H0V8.507z"/>
	<path fill="#CA2D3A" d="M52.363,13.766c0.701-0.444,1.753-0.669,3.156-0.669c1.094,0,1.858,0.211,2.293,0.632   c0.435,0.42,0.652,1.154,0.652,2.204c-1.07,0.425-2.083,0.766-3.04,1.027s-3.047,0.716-6.269,1.366   c-2.688,0.537-4.532,1.355-5.529,2.458c-1.001,1.101-1.499,2.506-1.499,4.215c0,1.823,0.693,3.354,2.079,4.597   c1.386,1.243,3.415,1.864,6.088,1.864c2.013,0,3.779-0.312,5.299-0.937c1.11-0.469,2.229-1.248,3.355-2.342   c0.098,0.646,0.196,1.121,0.294,1.423c0.099,0.302,0.308,0.74,0.631,1.315h8.038c-0.45-0.93-0.742-1.694-0.875-2.293   c-0.134-0.6-0.201-1.427-0.201-2.484V16.23c0-1.057-0.211-2.166-0.633-3.328c-0.422-1.162-0.998-2.061-1.728-2.695   c-1.04-0.916-2.34-1.518-3.9-1.807s-3.627-0.435-6.199-0.435c-1.602,0-3.091,0.121-4.469,0.359s-2.46,0.576-3.247,1.01   c-1.096,0.604-1.935,1.317-2.519,2.138c-0.583,0.821-1.029,1.948-1.338,3.379l8.236,0.879   C51.374,14.769,51.816,14.114,52.363,13.766 M58.464,21.634c0,1.076-0.172,1.95-0.516,2.622c-0.344,0.673-0.925,1.243-1.745,1.71   c-0.82,0.467-1.706,0.701-2.66,0.701c-0.911,0-1.601-0.216-2.071-0.648c-0.47-0.431-0.704-0.986-0.704-1.667   c0-0.595,0.238-1.125,0.715-1.592c0.462-0.454,1.562-0.914,3.301-1.381c1.276-0.325,2.503-0.701,3.68-1.126V21.634z"/>
	<path fill="#CA2D3A" d="M72.447,30.92h8.01v-3.288c1.115,1.397,2.146,2.348,3.094,2.856c1.258,0.646,2.641,0.972,4.153,0.972   c1.767,0,3.372-0.462,4.821-1.386c1.447-0.925,2.582-2.321,3.401-4.191c0.818-1.869,1.228-4.032,1.228-6.487   c0-3.683-0.896-6.509-2.69-8.477c-1.796-1.968-4.063-2.952-6.805-2.952c-1.328,0-2.54,0.225-3.636,0.675   c-1.094,0.45-2.073,1.125-2.936,2.025V0h-8.641V30.92z M82.145,15.688c0.748-0.871,1.713-1.308,2.894-1.308   c0.981,0,1.817,0.419,2.508,1.255c0.69,0.837,1.036,2.148,1.036,3.933c0,2.027-0.354,3.471-1.057,4.328   c-0.705,0.857-1.576,1.286-2.615,1.286c-1.125,0-2.055-0.436-2.786-1.307c-0.733-0.872-1.099-2.279-1.099-4.222   C81.025,17.881,81.398,16.559,82.145,15.688"/>
	<path fill="#CA2D3A" d="M101.688,30.92h8.01v-3.288c1.116,1.397,2.146,2.348,3.094,2.856c1.258,0.646,2.642,0.972,4.153,0.972   c1.767,0,3.372-0.462,4.821-1.386c1.447-0.925,2.582-2.321,3.402-4.191c0.817-1.869,1.228-4.032,1.228-6.487   c0-3.683-0.897-6.509-2.692-8.477s-4.062-2.952-6.804-2.952c-1.328,0-2.54,0.225-3.636,0.675c-1.094,0.45-2.073,1.125-2.936,2.025   V0h-8.641V30.92z M111.385,15.688c0.748-0.871,1.713-1.308,2.894-1.308c0.981,0,1.817,0.419,2.509,1.255   c0.689,0.837,1.035,2.148,1.035,3.933c0,2.027-0.354,3.471-1.057,4.328c-0.705,0.857-1.576,1.286-2.615,1.286   c-1.125,0-2.055-0.436-2.786-1.307c-0.733-0.872-1.099-2.279-1.099-4.222C110.266,17.881,110.639,16.559,111.385,15.688"/>
</g>
<rect x="127.468" y="35.78" fill="#CA2D3A" width="33.216" height="3.241"/>
</svg>