<svg xmlns="http://www.w3.org/2000/svg" viewBox="0 0 200.4 144.22"><defs><style>.cls-1{fill:#e30613;}.cls-2{fill:#1d1d1b;}</style></defs><title>Element 1</title><g id="Ebene_2" data-name="Ebene 2"><g id="Layer_1" data-name="Layer 1"><path class="cls-1" d="M14,100.41A14,14,0,0,1,6.37,74.67c1-.68,26.1-16.78,71-28.49s107.09-8.75,109.71-8.62a14,14,0,0,1-1.38,28c-.6,0-60.67-2.84-101.27,7.75S21.85,98,21.64,98.14A14,14,0,0,1,14,100.41Zm35-82L41.44,62.45c-.74,3.76-2.83,5.61-6.24,5.56a21.23,21.23,0,0,1-3.36-.5L31,76.38a33.18,33.18,0,0,0,5.79.73,14.71,14.71,0,0,0,10.7-3.82c2.77-2.6,4.44-6.22,5-10.88L60,18.4ZM52,12a6.1,6.1,0,0,0,4.26,1.47,6.25,6.25,0,0,0,4.36-1.76A5.5,5.5,0,0,0,62.2,7.41a5.44,5.44,0,0,0-1.8-4A6.17,6.17,0,0,0,56,1.81a6.23,6.23,0,0,0-4.36,1.76,5.39,5.39,0,0,0-1.62,4.22A5.36,5.36,0,0,0,52,12ZM75.35,60.14l5.83-33.6h8l1.43-8.14H82.56L83.14,15a6.71,6.71,0,0,1,2.57-4.53,7.91,7.91,0,0,1,5-1.47,13.5,13.5,0,0,1,3.21.46l1-8.64A35.79,35.79,0,0,0,88.93,0a16.46,16.46,0,0,0-11.3,3.72A16.48,16.48,0,0,0,72.19,14.2l-.54,4.16-6,0L64.2,26.54h6L64.4,60.14Zm35.82-8.45a9.14,9.14,0,0,1-5,1.24c-4.17-.06-6.3-2.07-6.4-6.06l-10.26-.08a12.89,12.89,0,0,0,4.7,10.13,17.63,17.63,0,0,0,11.57,4,23.32,23.32,0,0,0,9-1.5,15.69,15.69,0,0,0,6.71-4.59,11.11,11.11,0,0,0,2.57-7,10,10,0,0,0-1.41-5.82A12.19,12.19,0,0,0,118.32,38a30.73,30.73,0,0,0-8.14-2.91l-1.54-.35c-3.5-.85-5-2.3-4.67-4.36a5.24,5.24,0,0,1,2.3-3.43,7.67,7.67,0,0,1,4.42-1.28q5.4.09,5.32,5.44l10.8,0a12.33,12.33,0,0,0-4.44-9.76Q118,17.71,111,17.63a19.43,19.43,0,0,0-12.13,3.65A12,12,0,0,0,93.6,30.9Q93.24,39.58,105.71,43l3.51.89c3.26.92,4.69,2.42,4.28,4.47A4.87,4.87,0,0,1,111.17,51.69Zm58.26-17.94q-.23-7.51-3.68-11.78a11.77,11.77,0,0,0-9.51-4.34,13,13,0,0,0-10.18,4.59L150.26.89H139.35L129.08,60.14H139l1.58-4.51a11.64,11.64,0,0,0,10,5.32,15,15,0,0,0,12.57-5.75q4.86-5.94,6-15.81A44.61,44.61,0,0,0,169.43,33.75Zm-11.26,6.53Q156.36,52.19,148.33,52c-3.19-.1-5.27-1.55-6.25-4.33l3-16.64q3.16-4.53,8-4.37,5.13.12,5.55,6.85a32.07,32.07,0,0,1-.23,5.1Z"/><path class="cls-2" d="M35,107.44a4.46,4.46,0,0,1-.12,1.08,1.94,1.94,0,0,1-.38.82,1.65,1.65,0,0,1-.71.52,2.83,2.83,0,0,1-1.08.18,2.69,2.69,0,0,1-.4,0l-.37-.08a1.6,1.6,0,0,1-.29-.11.82.82,0,0,1-.17-.09.53.53,0,0,1-.06-.1.33.33,0,0,1,0-.12.6.6,0,0,1,0-.2c0-.08,0-.17,0-.29s0-.29,0-.4a1.31,1.31,0,0,1,0-.25.23.23,0,0,1,.07-.13.18.18,0,0,1,.11,0,.3.3,0,0,1,.14,0l.19.09.24.09a1,1,0,0,0,.32,0,1,1,0,0,0,.32,0,.61.61,0,0,0,.24-.18,1.2,1.2,0,0,0,.14-.34,2.75,2.75,0,0,0,0-.55v-6.07a.17.17,0,0,1,0-.12.28.28,0,0,1,.14-.09,1.43,1.43,0,0,1,.28,0l.44,0,.43,0a1.46,1.46,0,0,1,.27,0,.27.27,0,0,1,.15.09.17.17,0,0,1,0,.12Z"/><path class="cls-2" d="M42.57,109.67a.27.27,0,0,1,0,.12.23.23,0,0,1-.12.08.66.66,0,0,1-.23,0l-.35,0-.36,0a.66.66,0,0,1-.23,0,.24.24,0,0,1-.11-.08.19.19,0,0,1,0-.12V109a3.6,3.6,0,0,1-1,.82,2.2,2.2,0,0,1-1.08.28,2.41,2.41,0,0,1-1.06-.21,1.9,1.9,0,0,1-.69-.56,2.27,2.27,0,0,1-.37-.82,4.84,4.84,0,0,1-.11-1.17v-3.73a.21.21,0,0,1,0-.12.42.42,0,0,1,.14-.09,1.31,1.31,0,0,1,.27,0H38a1.33,1.33,0,0,1,.26,0,.42.42,0,0,1,.14.09.16.16,0,0,1,0,.12V107a3.47,3.47,0,0,0,.06.74,1.4,1.4,0,0,0,.19.43.87.87,0,0,0,.32.28,1,1,0,0,0,.46.1,1.14,1.14,0,0,0,.66-.24,3.83,3.83,0,0,0,.7-.7v-4.05a.21.21,0,0,1,0-.12.42.42,0,0,1,.14-.09,1.2,1.2,0,0,1,.26,0h.83a1.2,1.2,0,0,1,.26,0,.42.42,0,0,1,.14.09.16.16,0,0,1,0,.12Z"/><path class="cls-2" d="M49.8,104a1.21,1.21,0,0,1-.08.49c0,.1-.11.16-.18.16h-.72A1.07,1.07,0,0,1,49,105a1.54,1.54,0,0,1,.06.43,2.37,2.37,0,0,1-.18,1,1.89,1.89,0,0,1-.51.7,2.19,2.19,0,0,1-.8.43,3.4,3.4,0,0,1-1,.14,2.1,2.1,0,0,1-.56-.07,1.33,1.33,0,0,1-.41-.17,1.39,1.39,0,0,0-.15.22.6.6,0,0,0-.06.27.39.39,0,0,0,.17.32.86.86,0,0,0,.49.15l1.49.05a3.22,3.22,0,0,1,.92.15,2,2,0,0,1,.69.35,1.61,1.61,0,0,1,.57,1.28,2,2,0,0,1-.2.86,2,2,0,0,1-.6.69,3,3,0,0,1-1,.46,4.93,4.93,0,0,1-1.4.17,6.36,6.36,0,0,1-1.33-.12,2.69,2.69,0,0,1-.9-.34,1.33,1.33,0,0,1-.51-.52,1.41,1.41,0,0,1-.16-.67,1.54,1.54,0,0,1,0-.43,1.71,1.71,0,0,1,.17-.39,1.93,1.93,0,0,1,.28-.36,2.43,2.43,0,0,1,.38-.33,1.13,1.13,0,0,1-.62-1,1.4,1.4,0,0,1,.19-.73,2.27,2.27,0,0,1,.47-.6,2,2,0,0,1-.38-.58,2.5,2.5,0,0,1,0-1.78,2,2,0,0,1,.52-.71,2.16,2.16,0,0,1,.8-.45,3.31,3.31,0,0,1,1-.15,4.68,4.68,0,0,1,.55,0,3.26,3.26,0,0,1,.49.1h1.94c.08,0,.14,0,.19.15A1.44,1.44,0,0,1,49.8,104ZM48,110.3a.54.54,0,0,0-.24-.47,1.31,1.31,0,0,0-.68-.18l-1.22,0a1.94,1.94,0,0,0-.29.25,1.7,1.7,0,0,0-.17.23.6.6,0,0,0-.08.21.75.75,0,0,0,0,.21.56.56,0,0,0,.34.52,2.17,2.17,0,0,0,1,.18,2.4,2.4,0,0,0,.65-.08,1.15,1.15,0,0,0,.43-.21.73.73,0,0,0,.24-.29A1,1,0,0,0,48,110.3Zm-.4-4.86a1,1,0,0,0-.27-.77,1.07,1.07,0,0,0-.78-.27,1,1,0,0,0-.44.08,1.09,1.09,0,0,0-.32.23,1.08,1.08,0,0,0-.19.35,1.34,1.34,0,0,0-.06.4,1,1,0,0,0,.28.74,1,1,0,0,0,.75.27,1.26,1.26,0,0,0,.46-.08.9.9,0,0,0,.31-.23,1.12,1.12,0,0,0,.2-.33A1.32,1.32,0,0,0,47.59,105.44Z"/><path class="cls-2" d="M56.42,106.44a.65.65,0,0,1-.14.47.49.49,0,0,1-.38.15H52.18a2.19,2.19,0,0,0,.1.7,1.25,1.25,0,0,0,.81.88,2.16,2.16,0,0,0,.76.12,3.68,3.68,0,0,0,.79-.07,5.39,5.39,0,0,0,.6-.14l.41-.14a.67.67,0,0,1,.27-.07l.1,0a.22.22,0,0,1,.07.09.4.4,0,0,1,0,.17,2.44,2.44,0,0,1,0,.29v.25c0,.08,0,.14,0,.19a.83.83,0,0,1,0,.12.39.39,0,0,1-.08.1.66.66,0,0,1-.24.13,3,3,0,0,1-.5.16c-.21,0-.44.1-.71.14a5.57,5.57,0,0,1-.85.06,4.38,4.38,0,0,1-1.42-.21,2.44,2.44,0,0,1-1.63-1.67,4.78,4.78,0,0,1-.21-1.49,4.5,4.5,0,0,1,.22-1.47,3.14,3.14,0,0,1,.61-1.11,2.73,2.73,0,0,1,1-.69,3.38,3.38,0,0,1,1.3-.24,3.23,3.23,0,0,1,1.31.23,2.34,2.34,0,0,1,.9.62,2.56,2.56,0,0,1,.51,1,4.08,4.08,0,0,1,.16,1.19ZM54.75,106a1.73,1.73,0,0,0-.29-1.14,1.09,1.09,0,0,0-1-.41,1.26,1.26,0,0,0-.57.12,1.16,1.16,0,0,0-.4.33,1.51,1.51,0,0,0-.25.49,2.88,2.88,0,0,0-.1.61Z"/><path class="cls-2" d="M63.66,109.67a.19.19,0,0,1,0,.12.3.3,0,0,1-.14.08.8.8,0,0,1-.26,0l-.41,0-.42,0a.87.87,0,0,1-.27,0,.26.26,0,0,1-.13-.08.19.19,0,0,1,0-.12v-3.48a3.08,3.08,0,0,0-.07-.7,1.3,1.3,0,0,0-.19-.43.79.79,0,0,0-.32-.28.93.93,0,0,0-.45-.1,1.12,1.12,0,0,0-.66.24,3.47,3.47,0,0,0-.7.69v4.06a.19.19,0,0,1,0,.12.37.37,0,0,1-.14.08.92.92,0,0,1-.26,0l-.42,0-.42,0a.8.8,0,0,1-.26,0,.3.3,0,0,1-.14-.08.19.19,0,0,1,0-.12v-6.1a.21.21,0,0,1,0-.12.41.41,0,0,1,.12-.09l.23,0h.72a.9.9,0,0,1,.22,0,.35.35,0,0,1,.11.09.16.16,0,0,1,0,.12v.7a4,4,0,0,1,1-.82,2.31,2.31,0,0,1,1.09-.27,2.55,2.55,0,0,1,1,.2,2,2,0,0,1,.69.56,2.43,2.43,0,0,1,.38.83,5.2,5.2,0,0,1,.11,1.13Z"/><path class="cls-2" d="M71.13,109.67a.21.21,0,0,1,0,.12.19.19,0,0,1-.12.09.9.9,0,0,1-.22.05h-.7a.9.9,0,0,1-.22-.05.25.25,0,0,1-.13-.09.21.21,0,0,1,0-.12V109a4.14,4.14,0,0,1-1,.79,2.47,2.47,0,0,1-1.15.28,2.42,2.42,0,0,1-1.18-.27,2.27,2.27,0,0,1-.78-.73,3.22,3.22,0,0,1-.44-1.07A6,6,0,0,1,65,106.7a5.45,5.45,0,0,1,.18-1.46,3.24,3.24,0,0,1,.5-1.11,2.26,2.26,0,0,1,.84-.7,2.47,2.47,0,0,1,1.15-.25,2.05,2.05,0,0,1,.93.21,3.35,3.35,0,0,1,.82.61v-3.3a.21.21,0,0,1,0-.12.32.32,0,0,1,.14-.1l.26-.06.42,0,.42,0,.26.06a.34.34,0,0,1,.13.1.16.16,0,0,1,0,.12Zm-1.71-4.08a3.93,3.93,0,0,0-.7-.71,1.21,1.21,0,0,0-.71-.24,1,1,0,0,0-.58.16,1.31,1.31,0,0,0-.39.45,2.47,2.47,0,0,0-.22.63,4.05,4.05,0,0,0-.07.7,4.56,4.56,0,0,0,.06.75,2.48,2.48,0,0,0,.2.65,1.29,1.29,0,0,0,.38.45,1,1,0,0,0,.58.17,1.34,1.34,0,0,0,.35,0,1.08,1.08,0,0,0,.34-.17,2.38,2.38,0,0,0,.36-.3c.12-.13.26-.28.4-.46Z"/><path class="cls-2" d="M75.88,106.46a1.39,1.39,0,0,1-.07.55.25.25,0,0,1-.24.16H72.73a.25.25,0,0,1-.25-.16,1.41,1.41,0,0,1-.08-.55,1.39,1.39,0,0,1,.08-.54.26.26,0,0,1,.25-.16h2.84a.23.23,0,0,1,.14,0,.27.27,0,0,1,.1.11.64.64,0,0,1,.06.22A3.22,3.22,0,0,1,75.88,106.46Z"/><path class="cls-2" d="M86.1,109.67a.19.19,0,0,1,0,.12.23.23,0,0,1-.12.08.6.6,0,0,1-.22,0l-.35,0-.37,0a.6.6,0,0,1-.22,0,.23.23,0,0,1-.12-.08.27.27,0,0,1,0-.12V109a3.75,3.75,0,0,1-1,.82,2.24,2.24,0,0,1-1.09.28,2.37,2.37,0,0,1-1.05-.21,1.75,1.75,0,0,1-.69-.56,2.29,2.29,0,0,1-.38-.82,5.4,5.4,0,0,1-.11-1.17v-3.73a.16.16,0,0,1,0-.12.36.36,0,0,1,.13-.09,1.46,1.46,0,0,1,.27,0h.83a1.2,1.2,0,0,1,.26,0,.33.33,0,0,1,.14.09.17.17,0,0,1,0,.12V107a3.47,3.47,0,0,0,.06.74,1.39,1.39,0,0,0,.18.43,1,1,0,0,0,.33.28.93.93,0,0,0,.45.1,1.12,1.12,0,0,0,.66-.24,3.85,3.85,0,0,0,.71-.7v-4.05a.16.16,0,0,1,0-.12.36.36,0,0,1,.13-.09,1.46,1.46,0,0,1,.27,0h.83a1.2,1.2,0,0,1,.26,0,.56.56,0,0,1,.14.09.21.21,0,0,1,0,.12Z"/><path class="cls-2" d="M93.65,109.67a.19.19,0,0,1,0,.12.3.3,0,0,1-.14.08.8.8,0,0,1-.26,0l-.41,0-.42,0a.87.87,0,0,1-.27,0,.26.26,0,0,1-.13-.08.21.21,0,0,1,0-.12v-3.48a3.18,3.18,0,0,0-.06-.7,1.3,1.3,0,0,0-.19-.43.79.79,0,0,0-.32-.28.93.93,0,0,0-.45-.1,1.12,1.12,0,0,0-.66.24,3.47,3.47,0,0,0-.7.69v4.06a.19.19,0,0,1,0,.12.37.37,0,0,1-.14.08.93.93,0,0,1-.27,0l-.41,0-.42,0a.8.8,0,0,1-.26,0,.26.26,0,0,1-.14-.08.19.19,0,0,1,0-.12v-6.1a.21.21,0,0,1,0-.12.31.31,0,0,1,.12-.09l.23,0h.72a.9.9,0,0,1,.22,0,.35.35,0,0,1,.11.09.21.21,0,0,1,0,.12v.7a4.13,4.13,0,0,1,1-.82,2.38,2.38,0,0,1,1.1-.27,2.47,2.47,0,0,1,1,.2,1.83,1.83,0,0,1,.69.56,2.11,2.11,0,0,1,.38.83,4.6,4.6,0,0,1,.12,1.13Z"/><path class="cls-2" d="M101.12,109.67a.21.21,0,0,1,0,.12.19.19,0,0,1-.12.09.9.9,0,0,1-.22.05h-.7a.9.9,0,0,1-.22-.05.25.25,0,0,1-.13-.09.21.21,0,0,1,0-.12V109a4.14,4.14,0,0,1-1,.79,2.47,2.47,0,0,1-1.15.28,2.42,2.42,0,0,1-1.18-.27,2.27,2.27,0,0,1-.78-.73,3.22,3.22,0,0,1-.44-1.07A6,6,0,0,1,95,106.7a5.91,5.91,0,0,1,.17-1.46,3.45,3.45,0,0,1,.51-1.11,2.26,2.26,0,0,1,.84-.7,2.47,2.47,0,0,1,1.15-.25,2.05,2.05,0,0,1,.93.21,3.35,3.35,0,0,1,.82.61v-3.3a.21.21,0,0,1,0-.12.32.32,0,0,1,.14-.1l.26-.06.42,0,.41,0,.26.06a.32.32,0,0,1,.14.1.16.16,0,0,1,0,.12Zm-1.71-4.08a3.93,3.93,0,0,0-.7-.71,1.24,1.24,0,0,0-.71-.24,1,1,0,0,0-.58.16,1.31,1.31,0,0,0-.39.45,2.47,2.47,0,0,0-.22.63,3.26,3.26,0,0,0-.07.7,4.56,4.56,0,0,0,.06.75,2.48,2.48,0,0,0,.2.65,1.29,1.29,0,0,0,.38.45,1,1,0,0,0,.58.17,1.34,1.34,0,0,0,.35,0,1.2,1.2,0,0,0,.34-.17,2.38,2.38,0,0,0,.36-.3c.12-.13.26-.28.4-.46Z"/><path class="cls-2" d="M111.08,101.79c0,.14,0,.25,0,.35a1,1,0,0,1-.06.22.28.28,0,0,1-.08.12.17.17,0,0,1-.11,0h-2.9v2.38h2.72a.15.15,0,0,1,.11,0,.24.24,0,0,1,.08.11.64.64,0,0,1,.06.22c0,.09,0,.21,0,.34s0,.25,0,.35a.64.64,0,0,1-.06.22.32.32,0,0,1-.08.13.2.2,0,0,1-.11,0h-2.72v3.3a.2.2,0,0,1,0,.13.21.21,0,0,1-.14.09,1,1,0,0,1-.28.06l-.44,0-.43,0a.9.9,0,0,1-.28-.06.27.27,0,0,1-.15-.09.2.2,0,0,1,0-.13v-8a.55.55,0,0,1,.15-.43.57.57,0,0,1,.38-.14h4.17a.25.25,0,0,1,.11,0,.36.36,0,0,1,.08.12,1.09,1.09,0,0,1,.06.23C111.08,101.54,111.08,101.66,111.08,101.79Z"/><path class="cls-2" d="M117.26,109.69a.21.21,0,0,1-.07.15.68.68,0,0,1-.22.08l-.43,0-.45,0a.55.55,0,0,1-.2-.08.2.2,0,0,1-.06-.15v-.49a2.66,2.66,0,0,1-.86.63,2.46,2.46,0,0,1-1.06.23,3.15,3.15,0,0,1-.9-.13,1.9,1.9,0,0,1-.7-.38,1.64,1.64,0,0,1-.46-.61,2.14,2.14,0,0,1-.17-.87,1.92,1.92,0,0,1,.21-.92,1.75,1.75,0,0,1,.62-.65,3.12,3.12,0,0,1,1-.38A7.56,7.56,0,0,1,115,106h.6v-.37a2,2,0,0,0-.06-.51.79.79,0,0,0-.19-.35.81.81,0,0,0-.36-.22,2.15,2.15,0,0,0-.55-.06,3,3,0,0,0-.77.09l-.6.21-.43.21a.59.59,0,0,1-.28.1.24.24,0,0,1-.14,0,.25.25,0,0,1-.09-.13.71.71,0,0,1-.06-.22,2.48,2.48,0,0,1,0-.29,1.42,1.42,0,0,1,0-.33.65.65,0,0,1,.13-.23,1.67,1.67,0,0,1,.34-.22,3.85,3.85,0,0,1,.56-.22,6,6,0,0,1,.7-.17,4.93,4.93,0,0,1,.78-.06,4.84,4.84,0,0,1,1.23.14,2.09,2.09,0,0,1,.84.43,1.69,1.69,0,0,1,.47.75,3.21,3.21,0,0,1,.16,1.09Zm-1.69-2.61h-.66a3.55,3.55,0,0,0-.71.06,1.34,1.34,0,0,0-.48.18.77.77,0,0,0-.27.3.87.87,0,0,0-.08.4.77.77,0,0,0,.24.6.93.93,0,0,0,.67.22,1.29,1.29,0,0,0,.67-.18,3.27,3.27,0,0,0,.62-.54Z"/><path class="cls-2" d="M128.67,109.67a.19.19,0,0,1,0,.12.3.3,0,0,1-.14.08.8.8,0,0,1-.26,0l-.41,0-.43,0a.86.86,0,0,1-.26,0,.3.3,0,0,1-.14-.08.27.27,0,0,1,0-.12v-3.62a2.47,2.47,0,0,0-.06-.56,1.3,1.3,0,0,0-.18-.43.8.8,0,0,0-.3-.28.87.87,0,0,0-.44-.1,1,1,0,0,0-.62.24,4.45,4.45,0,0,0-.68.69v4.06a.19.19,0,0,1,0,.12.37.37,0,0,1-.14.08.93.93,0,0,1-.27,0l-.41,0-.41,0a.93.93,0,0,1-.27,0,.37.37,0,0,1-.14-.08.28.28,0,0,1,0-.12v-3.62a2.47,2.47,0,0,0-.06-.56,1.11,1.11,0,0,0-.17-.43.8.8,0,0,0-.3-.28.85.85,0,0,0-.43-.1,1,1,0,0,0-.63.24,4.45,4.45,0,0,0-.68.69v4.06a.19.19,0,0,1,0,.12.26.26,0,0,1-.14.08.8.8,0,0,1-.26,0l-.42,0-.41,0a.93.93,0,0,1-.27,0,.37.37,0,0,1-.14-.08.19.19,0,0,1,0-.12v-6.1a.16.16,0,0,1,0-.12.31.31,0,0,1,.12-.09,1,1,0,0,1,.23,0h.71a.8.8,0,0,1,.22,0,.41.41,0,0,1,.12.09.21.21,0,0,1,0,.12v.7a4.28,4.28,0,0,1,1-.82,2.16,2.16,0,0,1,1-.27,2.88,2.88,0,0,1,.68.08,2.11,2.11,0,0,1,.53.22,1.77,1.77,0,0,1,.41.36,2.31,2.31,0,0,1,.29.45,6,6,0,0,1,.53-.5,3.65,3.65,0,0,1,.52-.35,2.69,2.69,0,0,1,.51-.2,2.33,2.33,0,0,1,.53-.06,2.41,2.41,0,0,1,1,.2,1.88,1.88,0,0,1,.68.56,2.23,2.23,0,0,1,.36.83,4.48,4.48,0,0,1,.11,1Z"/><path class="cls-2" d="M132.21,101.5a1,1,0,0,1-.21.72,1.12,1.12,0,0,1-.79.2,1.17,1.17,0,0,1-.78-.19,1.31,1.31,0,0,1,0-1.41,1.12,1.12,0,0,1,.79-.2,1.17,1.17,0,0,1,.78.19A1,1,0,0,1,132.21,101.5Zm-.13,8.17a.19.19,0,0,1,0,.12.3.3,0,0,1-.14.08.8.8,0,0,1-.26,0l-.42,0-.42,0a.86.86,0,0,1-.26,0,.3.3,0,0,1-.14-.08.19.19,0,0,1,0-.12v-6.09a.19.19,0,0,1,0-.12.42.42,0,0,1,.14-.09,1.33,1.33,0,0,1,.26-.05,4.42,4.42,0,0,1,.84,0,1.2,1.2,0,0,1,.26.05.42.42,0,0,1,.14.09.19.19,0,0,1,0,.12Z"/><path class="cls-2" d="M135.52,109.67a.19.19,0,0,1,0,.12.3.3,0,0,1-.14.08.86.86,0,0,1-.26,0l-.42,0-.42,0a.86.86,0,0,1-.26,0,.3.3,0,0,1-.14-.08.19.19,0,0,1,0-.12v-9a.2.2,0,0,1,0-.13.42.42,0,0,1,.14-.09l.26-.06.42,0,.42,0,.26.06a.42.42,0,0,1,.14.09.2.2,0,0,1,0,.13Z"/><path class="cls-2" d="M139.09,101.5a1,1,0,0,1-.21.72,1.68,1.68,0,0,1-1.57,0,.92.92,0,0,1-.2-.69,1,1,0,0,1,.2-.72,1.68,1.68,0,0,1,1.57,0A.92.92,0,0,1,139.09,101.5Zm-.13,8.17a.19.19,0,0,1,0,.12.37.37,0,0,1-.14.08.93.93,0,0,1-.27,0l-.41,0-.42,0a.8.8,0,0,1-.26,0,.26.26,0,0,1-.14-.08.19.19,0,0,1,0-.12v-6.09a.19.19,0,0,1,0-.12.33.33,0,0,1,.14-.09,1.2,1.2,0,0,1,.26-.05,2.56,2.56,0,0,1,.42,0,2.37,2.37,0,0,1,.41,0,1.46,1.46,0,0,1,.27.05.56.56,0,0,1,.14.09.19.19,0,0,1,0,.12Z"/><path class="cls-2" d="M146.31,106.44a.69.69,0,0,1-.14.47.51.51,0,0,1-.39.15h-3.71a2.53,2.53,0,0,0,.09.7,1.19,1.19,0,0,0,.3.54,1.24,1.24,0,0,0,.51.34,2.22,2.22,0,0,0,.77.12,3.74,3.74,0,0,0,.79-.07,4.71,4.71,0,0,0,.59-.14l.42-.14a.6.6,0,0,1,.26-.07l.1,0a.16.16,0,0,1,.07.09.61.61,0,0,1,0,.17,2.44,2.44,0,0,1,0,.29,1.85,1.85,0,0,1,0,.25.92.92,0,0,1,0,.19.34.34,0,0,1,0,.12.36.36,0,0,1-.07.1.77.77,0,0,1-.24.13,2.82,2.82,0,0,1-.51.16c-.2,0-.44.1-.7.14a5.77,5.77,0,0,1-.85.06,4.44,4.44,0,0,1-1.43-.21,2.64,2.64,0,0,1-1-.62,2.72,2.72,0,0,1-.61-1,5.12,5.12,0,0,1-.2-1.49,4.79,4.79,0,0,1,.21-1.47,3.16,3.16,0,0,1,.62-1.11,2.64,2.64,0,0,1,1-.69,3.35,3.35,0,0,1,1.3-.24,3.23,3.23,0,0,1,1.31.23,2.3,2.3,0,0,1,.89.62,2.56,2.56,0,0,1,.51,1,4.07,4.07,0,0,1,.17,1.19Zm-1.67-.49a1.79,1.79,0,0,0-.29-1.14,1.12,1.12,0,0,0-1-.41,1.26,1.26,0,0,0-.57.12,1.2,1.2,0,0,0-.41.33,1.72,1.72,0,0,0-.24.49,2.36,2.36,0,0,0-.1.61Z"/><path class="cls-2" d="M153.55,109.67a.28.28,0,0,1,0,.12.37.37,0,0,1-.14.08.86.86,0,0,1-.26,0l-.42,0-.42,0a.8.8,0,0,1-.26,0,.37.37,0,0,1-.14-.08.19.19,0,0,1,0-.12v-3.48a3.18,3.18,0,0,0-.06-.7,1.55,1.55,0,0,0-.19-.43.79.79,0,0,0-.32-.28.93.93,0,0,0-.45-.1,1.17,1.17,0,0,0-.67.24,3.73,3.73,0,0,0-.69.69v4.06a.21.21,0,0,1,0,.12.26.26,0,0,1-.14.08.8.8,0,0,1-.26,0l-.42,0-.41,0a.93.93,0,0,1-.27,0,.37.37,0,0,1-.14-.08.28.28,0,0,1,0-.12v-6.1a.16.16,0,0,1,0-.12.31.31,0,0,1,.12-.09l.23,0h.71a1,1,0,0,1,.23,0,.53.53,0,0,1,.11.09.21.21,0,0,1,0,.12v.7a4.16,4.16,0,0,1,1-.82,2.34,2.34,0,0,1,1.09-.27,2.49,2.49,0,0,1,1.05.2,1.83,1.83,0,0,1,.69.56,2.26,2.26,0,0,1,.38.83,4.6,4.6,0,0,1,.12,1.13Z"/><path class="cls-2" d="M159.53,107.94a2,2,0,0,1-.2.92,1.76,1.76,0,0,1-.55.66,2.34,2.34,0,0,1-.84.4,3.86,3.86,0,0,1-1.05.14,4.4,4.4,0,0,1-.65,0,5.22,5.22,0,0,1-.56-.13,3.41,3.41,0,0,1-.41-.17.83.83,0,0,1-.24-.15.51.51,0,0,1-.12-.22,2.52,2.52,0,0,1,0-.46,2.58,2.58,0,0,1,0-.32.78.78,0,0,1,0-.19c0-.05,0-.08.07-.09a.15.15,0,0,1,.1,0,.5.5,0,0,1,.22.09l.37.19a4.69,4.69,0,0,0,.51.19,2.19,2.19,0,0,0,.66.09,1.7,1.7,0,0,0,.41,0,1,1,0,0,0,.31-.14.63.63,0,0,0,.21-.22.83.83,0,0,0,.06-.32.53.53,0,0,0-.12-.35,1.33,1.33,0,0,0-.34-.26,3.49,3.49,0,0,0-.47-.2l-.54-.21q-.27-.12-.54-.27a2.07,2.07,0,0,1-.47-.37,1.79,1.79,0,0,1-.34-.53,2,2,0,0,1-.12-.73,2,2,0,0,1,.17-.81,1.73,1.73,0,0,1,.49-.62,2.41,2.41,0,0,1,.78-.41,3.74,3.74,0,0,1,1-.14,3.43,3.43,0,0,1,.56,0,4.45,4.45,0,0,1,.48.1,1.92,1.92,0,0,1,.37.14,1,1,0,0,1,.22.12.41.41,0,0,1,.09.1.5.5,0,0,1,0,.13s0,.1,0,.17,0,.16,0,.27,0,.22,0,.3a.69.69,0,0,1,0,.18.13.13,0,0,1-.06.09.17.17,0,0,1-.1,0,.64.64,0,0,1-.19-.07l-.32-.16-.46-.15a2,2,0,0,0-.58-.07,1.59,1.59,0,0,0-.4,0,.81.81,0,0,0-.28.14.56.56,0,0,0-.17.21.71.71,0,0,0-.05.26.48.48,0,0,0,.13.35,1,1,0,0,0,.34.25,2.67,2.67,0,0,0,.48.21l.55.21a4.43,4.43,0,0,1,.54.26,1.81,1.81,0,0,1,.49.37,1.87,1.87,0,0,1,.34.52A2,2,0,0,1,159.53,107.94Z"/><path class="cls-2" d="M166.62,103.34a.55.55,0,0,1,.4.12.53.53,0,0,1,.11.36v5.85a.19.19,0,0,1,0,.12.3.3,0,0,1-.14.08.8.8,0,0,1-.26,0l-.41,0-.42,0a.87.87,0,0,1-.27,0,.26.26,0,0,1-.13-.08.21.21,0,0,1-.05-.12v-4.94h-2.74v2.87a1.33,1.33,0,0,0,.16.74.61.61,0,0,0,.56.25,1,1,0,0,0,.25,0l.19,0,.14-.06a.23.23,0,0,1,.11,0,.12.12,0,0,1,.08,0,.29.29,0,0,1,.06.1s0,.11,0,.19a2.92,2.92,0,0,1,0,.32,2.49,2.49,0,0,1,0,.45.55.55,0,0,1-.1.23.7.7,0,0,1-.18.12l-.29.09-.34.06-.38,0a2.88,2.88,0,0,1-.89-.13,1.48,1.48,0,0,1-.62-.4,1.66,1.66,0,0,1-.37-.68,4,4,0,0,1-.11-1v-3.13h-.73a.21.21,0,0,1-.2-.16A1.43,1.43,0,0,1,160,104a2.92,2.92,0,0,1,0-.33.65.65,0,0,1,.05-.22.24.24,0,0,1,.08-.11.27.27,0,0,1,.12,0H161V102a.28.28,0,0,1,0-.13.56.56,0,0,1,.14-.09,1.46,1.46,0,0,1,.27-.05l.41,0,.42,0a1.46,1.46,0,0,1,.27.05.48.48,0,0,1,.13.09.2.2,0,0,1,0,.13v1.36Zm.65-1.84a.93.93,0,0,1-.22.72,1.11,1.11,0,0,1-.78.2,1.13,1.13,0,0,1-.78-.19.92.92,0,0,1-.21-.69,1,1,0,0,1,.21-.72,1.68,1.68,0,0,1,1.57,0A.92.92,0,0,1,167.27,101.5Z"/><path class="cls-2" d="M170.91,104.73v4.94a.19.19,0,0,1,0,.12.3.3,0,0,1-.14.08.8.8,0,0,1-.26,0l-.42,0-.42,0a.8.8,0,0,1-.26,0,.3.3,0,0,1-.14-.08.28.28,0,0,1,0-.12v-4.94h-.76c-.09,0-.15,0-.2-.16a1.73,1.73,0,0,1-.06-.54,2.92,2.92,0,0,1,0-.33,1.09,1.09,0,0,1,0-.22.2.2,0,0,1,.09-.11.21.21,0,0,1,.12,0h.75v-.52a4.46,4.46,0,0,1,.13-1.09,2,2,0,0,1,.38-.78,1.57,1.57,0,0,1,.66-.46,2.54,2.54,0,0,1,1-.16,3,3,0,0,1,.52,0,2.39,2.39,0,0,1,.38.09.5.5,0,0,1,.17.1.27.27,0,0,1,.07.12,1.09,1.09,0,0,1,0,.22,3.33,3.33,0,0,1,0,.34,2.73,2.73,0,0,1,0,.31c0,.08,0,.14,0,.19a.22.22,0,0,1-.07.09l-.07,0-.1,0-.14,0-.2-.06-.27,0a.76.76,0,0,0-.32.06.55.55,0,0,0-.22.18,1,1,0,0,0-.13.33,2.41,2.41,0,0,0,0,.5v.56h2.31V102a.2.2,0,0,1,0-.13.48.48,0,0,1,.13-.09,1.46,1.46,0,0,1,.27-.05l.41,0,.42,0a1.2,1.2,0,0,1,.26.05.42.42,0,0,1,.14.09.2.2,0,0,1,0,.13v1.36h1.33a.24.24,0,0,1,.12,0,.24.24,0,0,1,.08.11,1,1,0,0,1,.06.22,3.22,3.22,0,0,1,0,.33,1.43,1.43,0,0,1-.07.54.21.21,0,0,1-.19.16h-1.34v2.87a1.33,1.33,0,0,0,.16.74.6.6,0,0,0,.56.25,1,1,0,0,0,.25,0l.19,0,.14-.06a.23.23,0,0,1,.11,0,.12.12,0,0,1,.08,0,.29.29,0,0,1,.06.1s0,.11,0,.19a2.92,2.92,0,0,1,0,.32,1.86,1.86,0,0,1,0,.46.41.41,0,0,1-.1.23.7.7,0,0,1-.18.11l-.28.09-.34.06-.38,0a2.93,2.93,0,0,1-.89-.13,1.48,1.48,0,0,1-.62-.4,1.66,1.66,0,0,1-.37-.68,4,4,0,0,1-.11-1v-3.13Z"/><path class="cls-2" d="M183.54,109.67a.27.27,0,0,1,0,.12.23.23,0,0,1-.12.08.66.66,0,0,1-.23,0l-.35,0-.36,0a.66.66,0,0,1-.23,0,.24.24,0,0,1-.11-.08.19.19,0,0,1,0-.12V109a3.71,3.71,0,0,1-1,.82,2.27,2.27,0,0,1-1.09.28,2.41,2.41,0,0,1-1.06-.21,1.79,1.79,0,0,1-.68-.56,2.13,2.13,0,0,1-.38-.82,4.84,4.84,0,0,1-.11-1.17v-3.73a.21.21,0,0,1,0-.12.42.42,0,0,1,.14-.09,1.31,1.31,0,0,1,.27,0H179a1.33,1.33,0,0,1,.26,0,.42.42,0,0,1,.14.09.16.16,0,0,1,0,.12V107a3.47,3.47,0,0,0,.06.74,1.4,1.4,0,0,0,.19.43.9.9,0,0,0,.78.38,1.12,1.12,0,0,0,.66-.24,3.83,3.83,0,0,0,.7-.7v-4.05a.21.21,0,0,1,0-.12.42.42,0,0,1,.14-.09,1.2,1.2,0,0,1,.26,0h.84a1.33,1.33,0,0,1,.26,0,.48.48,0,0,1,.13.09.16.16,0,0,1,0,.12Z"/><path class="cls-2" d="M191.1,109.67a.28.28,0,0,1,0,.12.37.37,0,0,1-.14.08.8.8,0,0,1-.26,0l-.42,0-.42,0a.8.8,0,0,1-.26,0,.3.3,0,0,1-.14-.08.19.19,0,0,1,0-.12v-3.48a3.18,3.18,0,0,0-.06-.7,1.55,1.55,0,0,0-.19-.43.79.79,0,0,0-.32-.28.93.93,0,0,0-.45-.1,1.17,1.17,0,0,0-.67.24,3.73,3.73,0,0,0-.69.69v4.06a.21.21,0,0,1-.05.12.26.26,0,0,1-.14.08.8.8,0,0,1-.26,0l-.42,0-.41,0a.93.93,0,0,1-.27,0,.37.37,0,0,1-.14-.08.28.28,0,0,1,0-.12v-6.1a.16.16,0,0,1,0-.12.31.31,0,0,1,.12-.09l.23,0h.71a1,1,0,0,1,.23,0,.35.35,0,0,1,.11.09.21.21,0,0,1,0,.12v.7a4.16,4.16,0,0,1,1-.82,2.34,2.34,0,0,1,1.09-.27,2.49,2.49,0,0,1,1,.2,1.83,1.83,0,0,1,.69.56,2.26,2.26,0,0,1,.38.83,4.6,4.6,0,0,1,.12,1.13Z"/><path class="cls-2" d="M198.28,104a1.24,1.24,0,0,1-.07.49c-.05.1-.12.16-.19.16h-.72a.94.94,0,0,1,.22.37,1.54,1.54,0,0,1,.06.43,2.37,2.37,0,0,1-.17,1,1.89,1.89,0,0,1-.51.7,2.28,2.28,0,0,1-.8.43,3.42,3.42,0,0,1-1,.14,2.1,2.1,0,0,1-.56-.07,1.45,1.45,0,0,1-.41-.17.93.93,0,0,0-.14.22.5.5,0,0,0-.07.27.37.37,0,0,0,.18.32.84.84,0,0,0,.49.15l1.48.05a3.29,3.29,0,0,1,.93.15,2,2,0,0,1,.68.35,1.61,1.61,0,0,1,.57,1.28,2,2,0,0,1-.2.86,2,2,0,0,1-.59.69,3.19,3.19,0,0,1-1,.46,4.88,4.88,0,0,1-1.4.17,6.36,6.36,0,0,1-1.33-.12,2.87,2.87,0,0,1-.9-.34,1.48,1.48,0,0,1-.51-.52,1.41,1.41,0,0,1-.16-.67,1.54,1.54,0,0,1,.06-.43,1.36,1.36,0,0,1,.17-.39,1.88,1.88,0,0,1,.27-.36,2.43,2.43,0,0,1,.38-.33,1.17,1.17,0,0,1-.45-.43,1.09,1.09,0,0,1-.16-.59,1.49,1.49,0,0,1,.18-.73,2.12,2.12,0,0,1,.48-.6,1.67,1.67,0,0,1-.38-.58,2,2,0,0,1-.15-.83,2.21,2.21,0,0,1,.19-1,2.08,2.08,0,0,1,.52-.71,2.25,2.25,0,0,1,.8-.45,3.33,3.33,0,0,1,1-.15,4.93,4.93,0,0,1,.55,0,3.54,3.54,0,0,1,.49.1H198c.08,0,.14,0,.19.15A1.23,1.23,0,0,1,198.28,104Zm-1.8,6.31a.55.55,0,0,0-.25-.47,1.28,1.28,0,0,0-.68-.18l-1.22,0a1.81,1.81,0,0,0-.28.25,1.13,1.13,0,0,0-.17.23.48.48,0,0,0-.09.21,1.49,1.49,0,0,0,0,.21.55.55,0,0,0,.35.52,2.09,2.09,0,0,0,1,.18,2.48,2.48,0,0,0,.66-.08,1.23,1.23,0,0,0,.43-.21.71.71,0,0,0,.23-.29A1,1,0,0,0,196.48,110.3Zm-.41-4.86a.94.94,0,0,0-1-1,1.06,1.06,0,0,0-.45.08,1,1,0,0,0-.31.23.92.92,0,0,0-.19.35,1.34,1.34,0,0,0-.06.4,1,1,0,0,0,.27.74,1,1,0,0,0,.76.27,1.25,1.25,0,0,0,.45-.08.94.94,0,0,0,.32-.23,1.09,1.09,0,0,0,.19-.33A1.32,1.32,0,0,0,196.07,105.44Z"/><path class="cls-2" d="M37.94,123.67a.16.16,0,0,1,0,.12.2.2,0,0,1-.11.09,1,1,0,0,1-.22.05h-.71a1,1,0,0,1-.22-.05.23.23,0,0,1-.12-.09.16.16,0,0,1,0-.12V123a3.78,3.78,0,0,1-1,.79,2.4,2.4,0,0,1-1.14.28,2.37,2.37,0,0,1-1.18-.27,2.4,2.4,0,0,1-.79-.73,3.22,3.22,0,0,1-.44-1.07,6,6,0,0,1-.13-1.29,5.47,5.47,0,0,1,.17-1.46,3.45,3.45,0,0,1,.51-1.11,2.15,2.15,0,0,1,.83-.7,2.52,2.52,0,0,1,1.15-.25,2.05,2.05,0,0,1,.93.21,3.21,3.21,0,0,1,.83.61v-3.3a.16.16,0,0,1,0-.12.28.28,0,0,1,.13-.1l.27-.06.41,0,.42,0,.26.06a.39.39,0,0,1,.14.1.21.21,0,0,1,0,.12Zm-1.71-4.08a4,4,0,0,0-.71-.71,1.19,1.19,0,0,0-.71-.24,1,1,0,0,0-.57.16,1.13,1.13,0,0,0-.39.45,2.47,2.47,0,0,0-.22.63,3.26,3.26,0,0,0-.07.7,4.56,4.56,0,0,0,.06.75,2.48,2.48,0,0,0,.2.65,1.26,1.26,0,0,0,.37.45,1,1,0,0,0,.59.17,1.27,1.27,0,0,0,.34,0,1.13,1.13,0,0,0,.35-.17,4.07,4.07,0,0,0,.36-.3l.4-.46Z"/><path class="cls-2" d="M45.3,120.44a.69.69,0,0,1-.14.47.5.5,0,0,1-.39.15H41.06a2.53,2.53,0,0,0,.09.7,1.29,1.29,0,0,0,.3.54,1.27,1.27,0,0,0,.52.34,2.13,2.13,0,0,0,.76.12,3.74,3.74,0,0,0,.79-.07,4.71,4.71,0,0,0,.59-.14l.42-.14a.67.67,0,0,1,.26-.07l.11,0a.35.35,0,0,1,.07.09.65.65,0,0,1,0,.17,2.44,2.44,0,0,1,0,.29v.25a1.76,1.76,0,0,0,0,.19.33.33,0,0,1-.05.12.23.23,0,0,1-.07.1.77.77,0,0,1-.24.13,2.82,2.82,0,0,1-.51.16c-.2,0-.44.1-.7.14a5.67,5.67,0,0,1-.85.06,4.33,4.33,0,0,1-1.42-.21,2.5,2.5,0,0,1-1-.62,2.62,2.62,0,0,1-.62-1,5.12,5.12,0,0,1-.2-1.49,4.79,4.79,0,0,1,.21-1.47,3.16,3.16,0,0,1,.62-1.11,2.64,2.64,0,0,1,1-.69,3.38,3.38,0,0,1,1.3-.24,3.23,3.23,0,0,1,1.31.23,2.3,2.3,0,0,1,.89.62,2.44,2.44,0,0,1,.52,1,4.08,4.08,0,0,1,.16,1.19ZM43.63,120a1.73,1.73,0,0,0-.29-1.14,1.12,1.12,0,0,0-1-.41,1.26,1.26,0,0,0-.57.12,1.08,1.08,0,0,0-.4.33,1.51,1.51,0,0,0-.25.49,2.36,2.36,0,0,0-.1.61Z"/><path class="cls-2" d="M51,121.94a2,2,0,0,1-.2.92,1.76,1.76,0,0,1-.55.66,2.34,2.34,0,0,1-.84.4,3.86,3.86,0,0,1-1.05.14,4.4,4.4,0,0,1-.65,0,5.22,5.22,0,0,1-.56-.13,3.41,3.41,0,0,1-.41-.17.83.83,0,0,1-.24-.15.51.51,0,0,1-.12-.22,2.52,2.52,0,0,1,0-.46,2.58,2.58,0,0,1,0-.32.78.78,0,0,1,0-.19c0-.05,0-.08.07-.09a.15.15,0,0,1,.1,0,.5.5,0,0,1,.22.09l.37.19a4.69,4.69,0,0,0,.51.19,2.19,2.19,0,0,0,.66.09,1.7,1.7,0,0,0,.41,0,1,1,0,0,0,.31-.14.53.53,0,0,0,.2-.22.68.68,0,0,0,.07-.32.53.53,0,0,0-.12-.35,1.33,1.33,0,0,0-.34-.26,3.49,3.49,0,0,0-.47-.2l-.54-.21q-.27-.12-.54-.27a1.87,1.87,0,0,1-.47-.37,1.79,1.79,0,0,1-.34-.53,2,2,0,0,1-.12-.73,1.81,1.81,0,0,1,.17-.81,1.73,1.73,0,0,1,.49-.62,2.32,2.32,0,0,1,.78-.41,3.74,3.74,0,0,1,1-.14,3.43,3.43,0,0,1,.56,0,4.45,4.45,0,0,1,.48.1,1.92,1.92,0,0,1,.37.14,1,1,0,0,1,.22.12.41.41,0,0,1,.09.1.5.5,0,0,1,0,.13s0,.1,0,.17,0,.16,0,.27,0,.22,0,.3a.69.69,0,0,1,0,.18.13.13,0,0,1-.06.09.17.17,0,0,1-.1,0,.64.64,0,0,1-.19-.07l-.32-.16-.46-.15a2,2,0,0,0-.58-.07,1.54,1.54,0,0,0-.4,0,.81.81,0,0,0-.28.14.56.56,0,0,0-.17.21.71.71,0,0,0-.05.26.48.48,0,0,0,.13.35,1,1,0,0,0,.34.25,2.67,2.67,0,0,0,.48.21l.55.21a4.43,4.43,0,0,1,.54.26,2,2,0,0,1,.49.37,1.87,1.87,0,0,1,.34.52A2,2,0,0,1,51,121.94Z"/><path class="cls-2" d="M60.43,123.15a3.11,3.11,0,0,1,0,.34,1.25,1.25,0,0,1,0,.24.25.25,0,0,1-.09.13.16.16,0,0,1-.12,0h-4a.55.55,0,0,1-.38-.13.57.57,0,0,1-.15-.44v-8a.16.16,0,0,1,0-.12.27.27,0,0,1,.15-.09L56,115l.43,0,.44,0,.27.06a.27.27,0,0,1,.15.09.16.16,0,0,1,0,.12v7.12h2.78a.21.21,0,0,1,.12,0,.25.25,0,0,1,.09.13.9.9,0,0,1,0,.22A3.32,3.32,0,0,1,60.43,123.15Z"/><path class="cls-2" d="M66.58,123.69a.18.18,0,0,1-.07.15.61.61,0,0,1-.21.08l-.44,0-.45,0a.49.49,0,0,1-.19-.08.2.2,0,0,1-.06-.15v-.49a2.77,2.77,0,0,1-.86.63,2.5,2.5,0,0,1-1.07.23,3.13,3.13,0,0,1-.89-.13,1.94,1.94,0,0,1-.71-.38,1.76,1.76,0,0,1-.46-.61,2.14,2.14,0,0,1-.16-.87,1.92,1.92,0,0,1,.21-.92,1.68,1.68,0,0,1,.62-.65,3.12,3.12,0,0,1,1-.38A7.49,7.49,0,0,1,64.3,120h.59v-.37a2,2,0,0,0-.06-.51.7.7,0,0,0-.19-.35.84.84,0,0,0-.35-.22,2.15,2.15,0,0,0-.55-.06,3,3,0,0,0-.77.09q-.34.11-.6.21l-.43.21a.62.62,0,0,1-.29.1.21.21,0,0,1-.13,0,.34.34,0,0,1-.1-.13c0-.06,0-.14-.06-.22a2.48,2.48,0,0,1,0-.29,1.34,1.34,0,0,1,0-.33.45.45,0,0,1,.13-.23,1.32,1.32,0,0,1,.33-.22,4.37,4.37,0,0,1,.56-.22,6.52,6.52,0,0,1,.7-.17,5.16,5.16,0,0,1,.79-.06,4.76,4.76,0,0,1,1.22.14,2.09,2.09,0,0,1,.84.43,1.62,1.62,0,0,1,.48.75,3.5,3.5,0,0,1,.15,1.09Zm-1.69-2.61h-.65a3.73,3.73,0,0,0-.72.06,1.36,1.36,0,0,0-.47.18.64.64,0,0,0-.27.3.87.87,0,0,0-.09.4.77.77,0,0,0,.24.6,1,1,0,0,0,.68.22,1.26,1.26,0,0,0,.66-.18,3,3,0,0,0,.62-.54Z"/><path class="cls-2" d="M74.12,123.67a.19.19,0,0,1,0,.12.3.3,0,0,1-.14.08.8.8,0,0,1-.26,0l-.41,0-.42,0a.87.87,0,0,1-.27,0,.26.26,0,0,1-.13-.08.21.21,0,0,1,0-.12v-3.48a3.18,3.18,0,0,0-.06-.7,1.3,1.3,0,0,0-.19-.43.79.79,0,0,0-.32-.28.93.93,0,0,0-.45-.1,1.12,1.12,0,0,0-.66.24,3.47,3.47,0,0,0-.7.69v4.06a.19.19,0,0,1,0,.12.37.37,0,0,1-.14.08.93.93,0,0,1-.27,0l-.41,0-.42,0a.8.8,0,0,1-.26,0,.26.26,0,0,1-.14-.08.19.19,0,0,1,0-.12v-6.1a.21.21,0,0,1,0-.12.31.31,0,0,1,.12-.09l.23,0h.72a.9.9,0,0,1,.22,0,.35.35,0,0,1,.11.09.21.21,0,0,1,0,.12v.7a4.13,4.13,0,0,1,1-.82,2.37,2.37,0,0,1,1.09-.27,2.49,2.49,0,0,1,1.05.2,1.83,1.83,0,0,1,.69.56,2.11,2.11,0,0,1,.38.83,4.6,4.6,0,0,1,.12,1.13Z"/><path class="cls-2" d="M81.59,123.67a.21.21,0,0,1,0,.12.23.23,0,0,1-.12.09.9.9,0,0,1-.22.05h-.7a.9.9,0,0,1-.22-.05.25.25,0,0,1-.13-.09.21.21,0,0,1,0-.12V123a4.14,4.14,0,0,1-1,.79,2.47,2.47,0,0,1-1.15.28,2.42,2.42,0,0,1-1.18-.27,2.27,2.27,0,0,1-.78-.73A3.22,3.22,0,0,1,75.6,122a6,6,0,0,1-.14-1.29,5.91,5.91,0,0,1,.17-1.46,3.45,3.45,0,0,1,.51-1.11,2.26,2.26,0,0,1,.84-.7,2.47,2.47,0,0,1,1.15-.25,2.05,2.05,0,0,1,.93.21,3.35,3.35,0,0,1,.82.61v-3.3a.21.21,0,0,1,0-.12.32.32,0,0,1,.14-.1l.26-.06.42,0,.41,0,.26.06a.32.32,0,0,1,.14.1.16.16,0,0,1,0,.12Zm-1.71-4.08a3.93,3.93,0,0,0-.7-.71,1.24,1.24,0,0,0-.71-.24,1,1,0,0,0-.58.16,1.31,1.31,0,0,0-.39.45,2.47,2.47,0,0,0-.22.63,3.26,3.26,0,0,0-.07.7,4.56,4.56,0,0,0,.06.75,2.48,2.48,0,0,0,.2.65,1.29,1.29,0,0,0,.38.45,1,1,0,0,0,.58.17,1.34,1.34,0,0,0,.35,0,1.2,1.2,0,0,0,.34-.17,2.38,2.38,0,0,0,.36-.3c.12-.13.26-.28.4-.46Z"/><path class="cls-2" d="M89,120.44a.65.65,0,0,1-.14.47.49.49,0,0,1-.38.15H84.72a2.53,2.53,0,0,0,.09.7,1.27,1.27,0,0,0,.29.54,1.35,1.35,0,0,0,.52.34,2.16,2.16,0,0,0,.76.12,3.84,3.84,0,0,0,.8-.07,5.75,5.75,0,0,0,.59-.14l.41-.14a.67.67,0,0,1,.27-.07l.1,0a.22.22,0,0,1,.07.09.61.61,0,0,1,0,.17c0,.08,0,.17,0,.29s0,.18,0,.25a.92.92,0,0,1,0,.19.34.34,0,0,1,0,.12.36.36,0,0,1-.07.1.74.74,0,0,1-.25.13,3,3,0,0,1-.5.16c-.21,0-.44.1-.71.14a5.53,5.53,0,0,1-.84.06,4.4,4.4,0,0,1-1.43-.21,2.5,2.5,0,0,1-1-.62,2.6,2.6,0,0,1-.61-1,5.44,5.44,0,0,1,0-3,3.14,3.14,0,0,1,.61-1.11,2.73,2.73,0,0,1,1-.69,3.4,3.4,0,0,1,1.31-.24,3.27,3.27,0,0,1,1.31.23,2.3,2.3,0,0,1,.89.62,2.56,2.56,0,0,1,.51,1,4.08,4.08,0,0,1,.16,1.19ZM87.29,120a1.86,1.86,0,0,0-.29-1.14,1.12,1.12,0,0,0-1-.41,1.34,1.34,0,0,0-.58.12,1.16,1.16,0,0,0-.4.33,1.32,1.32,0,0,0-.24.49,2.36,2.36,0,0,0-.1.61Z"/><path class="cls-2" d="M94.66,121.94a2,2,0,0,1-.19.92,1.86,1.86,0,0,1-.55.66,2.51,2.51,0,0,1-.84.4,4,4,0,0,1-1.06.14,4.62,4.62,0,0,1-.65,0c-.21,0-.39-.08-.56-.13a3.41,3.41,0,0,1-.41-.17.83.83,0,0,1-.24-.15.5.5,0,0,1-.11-.22,1.86,1.86,0,0,1,0-.46,2.92,2.92,0,0,1,0-.32.78.78,0,0,1,0-.19c0-.05,0-.08.07-.09a.17.17,0,0,1,.1,0,.46.46,0,0,1,.22.09l.37.19c.15.06.32.13.51.19a2.19,2.19,0,0,0,.66.09,1.7,1.7,0,0,0,.41,0,1,1,0,0,0,.32-.14.6.6,0,0,0,.2-.22.83.83,0,0,0,.07-.32.49.49,0,0,0-.13-.35,1.12,1.12,0,0,0-.33-.26,3.66,3.66,0,0,0-.48-.2l-.54-.21q-.27-.12-.54-.27a2.07,2.07,0,0,1-.47-.37,1.59,1.59,0,0,1-.33-.53,1.8,1.8,0,0,1-.13-.73,2,2,0,0,1,.17-.81,1.85,1.85,0,0,1,.49-.62,2.37,2.37,0,0,1,.79-.41,3.61,3.61,0,0,1,1-.14,3.43,3.43,0,0,1,.56,0l.49.1a2.21,2.21,0,0,1,.37.14.9.9,0,0,1,.21.12.31.31,0,0,1,.1.1s0,.08,0,.13,0,.1,0,.17a2.1,2.1,0,0,1,0,.27,2.63,2.63,0,0,1,0,.3c0,.07,0,.14,0,.18s0,.08-.07.09a.16.16,0,0,1-.09,0,.59.59,0,0,1-.2-.07,3.15,3.15,0,0,0-.32-.16l-.45-.15a2.12,2.12,0,0,0-.59-.07,1.59,1.59,0,0,0-.4,0,.92.92,0,0,0-.28.14.54.54,0,0,0-.16.21.55.55,0,0,0-.06.26.48.48,0,0,0,.13.35,1.11,1.11,0,0,0,.34.25,2.67,2.67,0,0,0,.48.21,5.2,5.2,0,0,1,.55.21,3.94,3.94,0,0,1,.55.26,1.92,1.92,0,0,1,.48.37,1.67,1.67,0,0,1,.34.52A1.81,1.81,0,0,1,94.66,121.94Z"/><path class="cls-2" d="M105.63,121.25a2.81,2.81,0,0,1-.13.85,2.45,2.45,0,0,1-.36.68,2.39,2.39,0,0,1-.55.5,2.7,2.7,0,0,1-.7.35,4.1,4.1,0,0,1-.82.2,5.69,5.69,0,0,1-1,.07H99.76a.53.53,0,0,1-.38-.13.54.54,0,0,1-.16-.44v-7.71a.52.52,0,0,1,.16-.43.54.54,0,0,1,.38-.14H102a5.89,5.89,0,0,1,1.37.14,2.68,2.68,0,0,1,1,.41,1.92,1.92,0,0,1,.6.7,2.41,2.41,0,0,1,.2,1,2.37,2.37,0,0,1-.08.61,2,2,0,0,1-.24.51,1.52,1.52,0,0,1-.39.41,1.75,1.75,0,0,1-.52.29,2.56,2.56,0,0,1,.69.24,1.85,1.85,0,0,1,.56.44,2,2,0,0,1,.37.63A2.39,2.39,0,0,1,105.63,121.25Zm-2.33-3.73a1.21,1.21,0,0,0-.08-.48.81.81,0,0,0-.25-.35,1.06,1.06,0,0,0-.41-.21,2.4,2.4,0,0,0-.67-.08H101v2.3h1a1.73,1.73,0,0,0,.62-.09,1.11,1.11,0,0,0,.39-.26,1,1,0,0,0,.23-.37A1.43,1.43,0,0,0,103.3,117.52Zm.46,3.79a1.35,1.35,0,0,0-.1-.55,1.12,1.12,0,0,0-.3-.41,1.35,1.35,0,0,0-.51-.25,2.89,2.89,0,0,0-.8-.09H101v2.52h1.29a2.32,2.32,0,0,0,.64-.08,1.25,1.25,0,0,0,.44-.24,1,1,0,0,0,.29-.38A1.1,1.1,0,0,0,103.76,121.31Z"/><path class="cls-2" d="M112.6,120.44a.69.69,0,0,1-.14.47.5.5,0,0,1-.39.15h-3.71a2.53,2.53,0,0,0,.09.7,1.29,1.29,0,0,0,.3.54,1.27,1.27,0,0,0,.52.34,2.13,2.13,0,0,0,.76.12,3.74,3.74,0,0,0,.79-.07,4.71,4.71,0,0,0,.59-.14l.42-.14a.67.67,0,0,1,.26-.07l.11,0a.2.2,0,0,1,.06.09.39.39,0,0,1,0,.17,2.44,2.44,0,0,1,0,.29v.25c0,.08,0,.14,0,.19a.33.33,0,0,1-.05.12.23.23,0,0,1-.07.1.77.77,0,0,1-.24.13,2.82,2.82,0,0,1-.51.16c-.2,0-.44.1-.7.14a5.67,5.67,0,0,1-.85.06,4.33,4.33,0,0,1-1.42-.21,2.5,2.5,0,0,1-1-.62,2.62,2.62,0,0,1-.62-1,5.12,5.12,0,0,1-.2-1.49,4.79,4.79,0,0,1,.21-1.47,3.16,3.16,0,0,1,.62-1.11,2.64,2.64,0,0,1,1-.69,3.35,3.35,0,0,1,1.3-.24,3.23,3.23,0,0,1,1.31.23,2.3,2.3,0,0,1,.89.62,2.44,2.44,0,0,1,.52,1,4.08,4.08,0,0,1,.16,1.19Zm-1.67-.49a1.73,1.73,0,0,0-.29-1.14,1.12,1.12,0,0,0-1-.41,1.26,1.26,0,0,0-.57.12,1.08,1.08,0,0,0-.4.33,1.51,1.51,0,0,0-.25.49,2.36,2.36,0,0,0-.1.61Z"/><path class="cls-2" d="M117.93,118.14c0,.16,0,.3,0,.4s0,.19,0,.25a.18.18,0,0,1-.08.12.16.16,0,0,1-.11,0,.3.3,0,0,1-.12,0l-.15,0-.19-.05a.85.85,0,0,0-.23,0,.71.71,0,0,0-.28.06,1.19,1.19,0,0,0-.3.18,1.69,1.69,0,0,0-.32.33,4.9,4.9,0,0,0-.36.51v3.8a.28.28,0,0,1,0,.12.37.37,0,0,1-.14.08.93.93,0,0,1-.27,0l-.41,0-.42,0a.8.8,0,0,1-.26,0,.26.26,0,0,1-.14-.08.21.21,0,0,1,0-.12v-6.1a.21.21,0,0,1,0-.12.31.31,0,0,1,.12-.09l.23,0h.72a.9.9,0,0,1,.22,0,.35.35,0,0,1,.11.09.21.21,0,0,1,0,.12v.76a5.13,5.13,0,0,1,.46-.57,3,3,0,0,1,.4-.35,1.64,1.64,0,0,1,.38-.18,1.73,1.73,0,0,1,.38,0h.2l.21,0,.19.06.12.06a.35.35,0,0,1,.05.08.81.81,0,0,1,0,.11s0,.12,0,.22Z"/><path class="cls-2" d="M120.71,123.67a.19.19,0,0,1,0,.12.26.26,0,0,1-.14.08.8.8,0,0,1-.26,0l-.42,0-.41,0a.93.93,0,0,1-.27,0,.37.37,0,0,1-.14-.08.28.28,0,0,1,0-.12v-9a.28.28,0,0,1,0-.13.56.56,0,0,1,.14-.09l.27-.06.41,0,.42,0,.26.06a.33.33,0,0,1,.14.09.2.2,0,0,1,0,.13Z"/><path class="cls-2" d="M124.28,115.5a1,1,0,0,1-.21.72,1.12,1.12,0,0,1-.79.2,1.17,1.17,0,0,1-.78-.19,1.31,1.31,0,0,1,0-1.41,1.12,1.12,0,0,1,.79-.2,1.17,1.17,0,0,1,.78.19A1,1,0,0,1,124.28,115.5Zm-.13,8.17a.19.19,0,0,1,0,.12.3.3,0,0,1-.14.08.8.8,0,0,1-.26,0l-.42,0-.42,0a.86.86,0,0,1-.26,0,.37.37,0,0,1-.14-.08.19.19,0,0,1,0-.12v-6.09a.19.19,0,0,1,0-.12.56.56,0,0,1,.14-.09,1.33,1.33,0,0,1,.26-.05,4.42,4.42,0,0,1,.84,0,1.2,1.2,0,0,1,.26.05.42.42,0,0,1,.14.09.19.19,0,0,1,0,.12Z"/><path class="cls-2" d="M131.69,123.67a.19.19,0,0,1,0,.12.3.3,0,0,1-.14.08.8.8,0,0,1-.26,0l-.41,0-.42,0a.93.93,0,0,1-.27,0,.32.32,0,0,1-.13-.08.19.19,0,0,1,0-.12v-3.48a2.6,2.6,0,0,0-.07-.7,1.13,1.13,0,0,0-.19-.43.76.76,0,0,0-.31-.28,1,1,0,0,0-.46-.1,1.12,1.12,0,0,0-.66.24,3.47,3.47,0,0,0-.7.69v4.06a.19.19,0,0,1,0,.12.3.3,0,0,1-.14.08.86.86,0,0,1-.26,0l-.42,0-.42,0a.86.86,0,0,1-.26,0,.3.3,0,0,1-.14-.08.19.19,0,0,1,0-.12v-6.1a.21.21,0,0,1,0-.12.48.48,0,0,1,.13-.09.9.9,0,0,1,.22,0H127a.9.9,0,0,1,.22,0,.35.35,0,0,1,.11.09.16.16,0,0,1,0,.12v.7a4.16,4.16,0,0,1,1-.82,2.34,2.34,0,0,1,1.09-.27,2.55,2.55,0,0,1,1,.2,2,2,0,0,1,.69.56,2.43,2.43,0,0,1,.38.83,5.2,5.2,0,0,1,.11,1.13Z"/><path class="cls-2" d="M36.8,139.6a2.25,2.25,0,0,1-.22,1,2.12,2.12,0,0,1-.59.77,2.37,2.37,0,0,1-.89.47A3.52,3.52,0,0,1,34,142a3.64,3.64,0,0,1-.76-.07,4.05,4.05,0,0,1-.63-.17,3.4,3.4,0,0,1-.46-.21,1.11,1.11,0,0,1-.26-.18.49.49,0,0,1-.11-.2,1.23,1.23,0,0,1,0-.31,1.3,1.3,0,0,1,0-.23.43.43,0,0,1,0-.15s0-.07.07-.08.05,0,.09,0a.51.51,0,0,1,.25.1l.41.24a5.8,5.8,0,0,0,.62.24,2.91,2.91,0,0,0,.82.11,2,2,0,0,0,.66-.1,1.42,1.42,0,0,0,.5-.27,1.18,1.18,0,0,0,.33-.43,1.32,1.32,0,0,0,.11-.57,1.11,1.11,0,0,0-.15-.6,1.75,1.75,0,0,0-.42-.44,4.75,4.75,0,0,0-.6-.34L33.8,138a6.24,6.24,0,0,1-.68-.35,3,3,0,0,1-.59-.47,2.26,2.26,0,0,1-.42-.62,2.06,2.06,0,0,1-.16-.86,2.22,2.22,0,0,1,.18-.92,2.06,2.06,0,0,1,.52-.68,2.33,2.33,0,0,1,.8-.41,3.2,3.2,0,0,1,1-.14,3.39,3.39,0,0,1,.55,0,3.59,3.59,0,0,1,.52.13,2.53,2.53,0,0,1,.44.18,1.08,1.08,0,0,1,.25.16l.08.09,0,.09s0,.08,0,.13v.2a1.27,1.27,0,0,1,0,.2.61.61,0,0,1,0,.15l-.06.09a.11.11,0,0,1-.08,0,.55.55,0,0,1-.22-.09l-.36-.2a4.14,4.14,0,0,0-.51-.21,2.31,2.31,0,0,0-.67-.09,1.78,1.78,0,0,0-.59.09,1.42,1.42,0,0,0-.42.25,1,1,0,0,0-.25.36,1.33,1.33,0,0,0-.08.45,1.07,1.07,0,0,0,.16.59,1.43,1.43,0,0,0,.42.43,2.87,2.87,0,0,0,.6.35l.68.32a7.49,7.49,0,0,1,.69.36,3,3,0,0,1,.6.46,1.94,1.94,0,0,1,.42.62A2,2,0,0,1,36.8,139.6Z"/><path class="cls-2" d="M43.21,135.86a.33.33,0,0,1,.26.09.44.44,0,0,1,.07.25v5.54a.16.16,0,0,1,0,.09.18.18,0,0,1-.08.06.65.65,0,0,1-.17,0l-.24,0-.26,0a.57.57,0,0,1-.16,0,.23.23,0,0,1-.09-.06.16.16,0,0,1,0-.09v-5H39.53v3.19a1.77,1.77,0,0,0,.18.89.65.65,0,0,0,.62.3,1,1,0,0,0,.26,0l.21-.06L41,141l.11,0,.06,0a.1.1,0,0,1,.05.06l0,.12c0,.05,0,.12,0,.19a1.12,1.12,0,0,1,0,.29.34.34,0,0,1-.07.16.49.49,0,0,1-.16.1,1,1,0,0,1-.23.07l-.27.05-.3,0a2.16,2.16,0,0,1-.76-.12,1.28,1.28,0,0,1-.52-.36,1.46,1.46,0,0,1-.29-.6,3.6,3.6,0,0,1-.09-.86v-3.34h-.8a.17.17,0,0,1-.16-.1.71.71,0,0,1-.05-.33,1.15,1.15,0,0,1,0-.2,1.27,1.27,0,0,1,0-.14.27.27,0,0,1,.07-.08l.09,0h.8V134.5a.12.12,0,0,1,0-.08.13.13,0,0,1,.08-.06.5.5,0,0,1,.16-.05h.52a.44.44,0,0,1,.15.05.2.2,0,0,1,.09.06.24.24,0,0,1,0,.08v1.36Zm.45-1.76a.71.71,0,0,1-.14.5.76.76,0,0,1-.52.13.71.71,0,0,1-.5-.13.67.67,0,0,1-.14-.49.71.71,0,0,1,.14-.5.78.78,0,0,1,.52-.13.71.71,0,0,1,.5.13A.67.67,0,0,1,43.66,134.1Z"/><path class="cls-2" d="M46.81,136.73v5a.16.16,0,0,1,0,.09l-.08.06a.65.65,0,0,1-.17,0l-.25,0-.25,0a.65.65,0,0,1-.17,0l-.08-.06a.16.16,0,0,1,0-.09v-5H45a.17.17,0,0,1-.16-.1.87.87,0,0,1,0-.33,1,1,0,0,1,0-.2.49.49,0,0,1,0-.14.27.27,0,0,1,.07-.08l.09,0h.8v-.59a4.24,4.24,0,0,1,.11-1,1.83,1.83,0,0,1,.34-.7,1.31,1.31,0,0,1,.57-.41,2.47,2.47,0,0,1,.82-.13,2.22,2.22,0,0,1,.45.05,1.46,1.46,0,0,1,.32.09.43.43,0,0,1,.14.08.44.44,0,0,1,.06.1l0,.14c0,.06,0,.13,0,.21s0,.14,0,.19l0,.12a.1.1,0,0,1-.05.06l0,0-.12,0-.16-.07-.22-.06a1.39,1.39,0,0,0-.3,0,1,1,0,0,0-.4.08.6.6,0,0,0-.26.24,1,1,0,0,0-.15.42,3.61,3.61,0,0,0-.05.62v.62h2.58V134.5a.24.24,0,0,1,0-.08.2.2,0,0,1,.09-.06.44.44,0,0,1,.15-.05h.52a.5.5,0,0,1,.16.05.17.17,0,0,1,.08.06.13.13,0,0,1,0,.08v1.36h1.45l.1,0A.24.24,0,0,1,52,136a1.09,1.09,0,0,1,.05.14,1.15,1.15,0,0,1,0,.2.69.69,0,0,1-.06.33.16.16,0,0,1-.15.1H50.43v3.19a1.78,1.78,0,0,0,.17.89.65.65,0,0,0,.62.3,1,1,0,0,0,.26,0l.21-.06.15-.06.11,0,.07,0a.09.09,0,0,1,0,.06l0,.12a1.09,1.09,0,0,1,0,.19,1.12,1.12,0,0,1,0,.29.27.27,0,0,1-.08.16.39.39,0,0,1-.14.1l-.23.07-.28.05-.29,0a2.13,2.13,0,0,1-.76-.12,1.25,1.25,0,0,1-.53-.36,1.46,1.46,0,0,1-.29-.6,3.6,3.6,0,0,1-.09-.86v-3.34Z"/><path class="cls-2" d="M58.38,141.74a.29.29,0,0,1,0,.09l-.08.06a.57.57,0,0,1-.15,0l-.23,0-.24,0a.42.42,0,0,1-.14,0,.14.14,0,0,1-.07-.06.15.15,0,0,1,0-.09V141a3.46,3.46,0,0,1-1,.78,2,2,0,0,1-1,.25,2.21,2.21,0,0,1-1-.19,1.78,1.78,0,0,1-.63-.52,2.11,2.11,0,0,1-.34-.76,4.54,4.54,0,0,1-.11-1.06V136a.14.14,0,0,1,0-.09.18.18,0,0,1,.08-.06.61.61,0,0,1,.17,0h.5a.61.61,0,0,1,.17,0l.08.06a.14.14,0,0,1,0,.09v3.32a3.52,3.52,0,0,0,.07.81,1.49,1.49,0,0,0,.22.51,1.1,1.1,0,0,0,.38.33,1.12,1.12,0,0,0,.53.12,1.34,1.34,0,0,0,.79-.28,4.51,4.51,0,0,0,.82-.82v-4a.14.14,0,0,1,0-.09.18.18,0,0,1,.08-.06l.16,0h.52a.46.46,0,0,1,.15,0l.09.06a.14.14,0,0,1,0,.09Z"/><path class="cls-2" d="M65.23,141.74a.15.15,0,0,1,0,.09l-.08.06a.57.57,0,0,1-.16,0l-.26,0-.26,0a.65.65,0,0,1-.16,0l-.08-.06a.29.29,0,0,1,0-.09V138.4a3.31,3.31,0,0,0-.08-.79,1.63,1.63,0,0,0-.22-.52,1,1,0,0,0-.38-.33,1.27,1.27,0,0,0-.54-.11,1.31,1.31,0,0,0-.78.28,4.53,4.53,0,0,0-.83.82v4a.29.29,0,0,1,0,.09l-.09.06a.49.49,0,0,1-.15,0l-.26,0-.26,0a.57.57,0,0,1-.16,0,.18.18,0,0,1-.08-.06.16.16,0,0,1,0-.09V136a.24.24,0,0,1,0-.09l.08-.06.15,0H61l.15,0,.07.06a.24.24,0,0,1,0,.09v.75a3.52,3.52,0,0,1,1-.79,2.15,2.15,0,0,1,1-.25,2.13,2.13,0,0,1,1,.2,1.77,1.77,0,0,1,.63.51,2.12,2.12,0,0,1,.35.76,4.56,4.56,0,0,1,.1,1Z"/><path class="cls-2" d="M71.92,136.29a.65.65,0,0,1-.06.32.19.19,0,0,1-.16.1h-.82a1.16,1.16,0,0,1,.31.5,1.9,1.9,0,0,1,.09.58,2.14,2.14,0,0,1-.16.87,1.65,1.65,0,0,1-.45.65,2.1,2.1,0,0,1-.7.4,2.83,2.83,0,0,1-.9.14,2.46,2.46,0,0,1-.67-.09,1.43,1.43,0,0,1-.48-.23.83.83,0,0,0-.19.26.7.7,0,0,0-.07.33.45.45,0,0,0,.2.37,1,1,0,0,0,.55.16l1.5.06a3.18,3.18,0,0,1,.78.12,1.93,1.93,0,0,1,.61.3,1.41,1.41,0,0,1,.41.47,1.39,1.39,0,0,1,.14.66,1.72,1.72,0,0,1-.66,1.38,2.52,2.52,0,0,1-.87.42,4.58,4.58,0,0,1-1.25.16,4.9,4.9,0,0,1-1.17-.12,2.72,2.72,0,0,1-.8-.32,1.23,1.23,0,0,1-.45-.49,1.4,1.4,0,0,1-.14-.61,1.92,1.92,0,0,1,0-.41,1.34,1.34,0,0,1,.16-.37,1.62,1.62,0,0,1,.26-.34,2.91,2.91,0,0,1,.36-.32,1.18,1.18,0,0,1-.47-.4,1.07,1.07,0,0,1-.14-.52,1.52,1.52,0,0,1,.15-.69,2.22,2.22,0,0,1,.4-.55,1.76,1.76,0,0,1-.31-.53,1.88,1.88,0,0,1-.12-.71A2.23,2.23,0,0,1,67,137a1.8,1.8,0,0,1,.45-.65,1.92,1.92,0,0,1,.71-.41,2.56,2.56,0,0,1,.89-.15,3.64,3.64,0,0,1,.48,0l.43.08H71.7a.17.17,0,0,1,.16.11A.65.65,0,0,1,71.92,136.29Zm-1.11,6a.64.64,0,0,0-.3-.57,1.62,1.62,0,0,0-.82-.21l-1.48,0a2,2,0,0,0-.33.3,1.24,1.24,0,0,0-.21.27.93.93,0,0,0-.1.26,1.09,1.09,0,0,0,0,.26.67.67,0,0,0,.42.62,2.51,2.51,0,0,0,1.17.22,2.57,2.57,0,0,0,.79-.1,1.48,1.48,0,0,0,.52-.24.93.93,0,0,0,.28-.35A1,1,0,0,0,70.81,142.32Zm-.53-4.53a1.26,1.26,0,0,0-.32-.91,1.21,1.21,0,0,0-.91-.33,1.25,1.25,0,0,0-.53.11,1,1,0,0,0-.38.28,1.29,1.29,0,0,0-.22.4,1.61,1.61,0,0,0-.07.49,1.23,1.23,0,0,0,.32.89,1.18,1.18,0,0,0,.9.32,1.27,1.27,0,0,0,.54-.1.94.94,0,0,0,.38-.27,1.29,1.29,0,0,0,.22-.4A1.51,1.51,0,0,0,70.28,137.79Z"/><path class="cls-2" d="M81.1,141.74a.16.16,0,0,1,0,.09.11.11,0,0,1-.07.06.58.58,0,0,1-.14,0l-.22,0-.22,0a.57.57,0,0,1-.15,0,.12.12,0,0,1-.08-.06.16.16,0,0,1,0-.09V141a4,4,0,0,1-.93.76,2.18,2.18,0,0,1-1.07.27,2.25,2.25,0,0,1-1.07-.24,2.18,2.18,0,0,1-.72-.66,3,3,0,0,1-.4-1,5.11,5.11,0,0,1-.13-1.19,5,5,0,0,1,.16-1.33,3,3,0,0,1,.47-1,2.07,2.07,0,0,1,.77-.64,2.39,2.39,0,0,1,1.06-.23,2,2,0,0,1,.92.22,3.16,3.16,0,0,1,.82.65v-3.32a.16.16,0,0,1,0-.09.1.1,0,0,1,.08-.06l.16,0,.25,0,.26,0,.16,0a.15.15,0,0,1,.09.06.16.16,0,0,1,0,.09Zm-1.06-4a3.81,3.81,0,0,0-.82-.8,1.45,1.45,0,0,0-.83-.28,1.26,1.26,0,0,0-.68.19,1.59,1.59,0,0,0-.45.51,2.15,2.15,0,0,0-.25.7,3.56,3.56,0,0,0-.08.8,5.73,5.73,0,0,0,.06.84,2.68,2.68,0,0,0,.23.74,1.46,1.46,0,0,0,.44.51,1.15,1.15,0,0,0,.69.2,1.34,1.34,0,0,0,.4-.06,1.6,1.6,0,0,0,.4-.19,3.11,3.11,0,0,0,.42-.35A4.14,4.14,0,0,0,80,140Z"/><path class="cls-2" d="M87.91,138.64a.42.42,0,0,1-.13.35.4.4,0,0,1-.28.1H83.74a3.72,3.72,0,0,0,.09.86,1.72,1.72,0,0,0,.32.65,1.3,1.3,0,0,0,.58.42,2.28,2.28,0,0,0,.88.15,3.14,3.14,0,0,0,.72-.07,3.21,3.21,0,0,0,.56-.15,3,3,0,0,0,.38-.15.66.66,0,0,1,.22-.06l.08,0a.11.11,0,0,1,.06.07,1,1,0,0,1,0,.12c0,.05,0,.12,0,.19s0,.11,0,.15a.3.3,0,0,1,0,.1.12.12,0,0,1,0,.09.18.18,0,0,1,0,.07,1.33,1.33,0,0,1-.21.12,2.93,2.93,0,0,1-.45.15,6.07,6.07,0,0,1-.63.14,4.59,4.59,0,0,1-.76.06,3.62,3.62,0,0,1-1.24-.2,2.26,2.26,0,0,1-.89-.58,2.47,2.47,0,0,1-.54-1,4.3,4.3,0,0,1-.19-1.36,4.47,4.47,0,0,1,.19-1.32,2.76,2.76,0,0,1,.55-1,2.5,2.5,0,0,1,.87-.63,3,3,0,0,1,1.13-.22,2.68,2.68,0,0,1,1.15.22,2.19,2.19,0,0,1,.78.58,2.26,2.26,0,0,1,.44.86,3.51,3.51,0,0,1,.15,1Zm-1.06-.31a1.92,1.92,0,0,0-.36-1.3,1.41,1.41,0,0,0-1.15-.47,1.45,1.45,0,0,0-.68.15,1.32,1.32,0,0,0-.49.38,1.57,1.57,0,0,0-.31.57,2.41,2.41,0,0,0-.12.67Z"/><path class="cls-2" d="M93.09,140.19a1.94,1.94,0,0,1-.16.78,1.7,1.7,0,0,1-.46.57,2,2,0,0,1-.72.36,3.16,3.16,0,0,1-.9.12,3.48,3.48,0,0,1-.58-.05,3.06,3.06,0,0,1-.5-.12,2.81,2.81,0,0,1-.37-.15.93.93,0,0,1-.22-.14.35.35,0,0,1-.1-.18.9.9,0,0,1,0-.31,1.25,1.25,0,0,1,0-.21l0-.13a.13.13,0,0,1,0-.07.12.12,0,0,1,.08,0,.51.51,0,0,1,.21.08l.33.19a3.69,3.69,0,0,0,.48.19,2.35,2.35,0,0,0,.63.08,2.44,2.44,0,0,0,.48-.05,1.26,1.26,0,0,0,.37-.17.78.78,0,0,0,.25-.29,1,1,0,0,0,.08-.4.69.69,0,0,0-.12-.41,1,1,0,0,0-.33-.29,3.77,3.77,0,0,0-.45-.23l-.53-.2c-.18-.07-.35-.16-.53-.25a2.15,2.15,0,0,1-.46-.33,1.56,1.56,0,0,1-.32-.47,1.6,1.6,0,0,1-.13-.65,1.79,1.79,0,0,1,.13-.65,1.69,1.69,0,0,1,.39-.54,2.19,2.19,0,0,1,.66-.37,2.72,2.72,0,0,1,.91-.14,2.28,2.28,0,0,1,.45,0l.42.1a1.83,1.83,0,0,1,.31.12.87.87,0,0,1,.2.12l.09.09,0,.08a.74.74,0,0,0,0,.12c0,.05,0,.1,0,.17s0,.13,0,.19a.5.5,0,0,1,0,.13.13.13,0,0,1,0,.07.08.08,0,0,1-.07,0,.3.3,0,0,1-.16-.07l-.28-.15-.41-.15a2.06,2.06,0,0,0-.53-.07,1.41,1.41,0,0,0-.47.07.86.86,0,0,0-.33.17.73.73,0,0,0-.2.26.88.88,0,0,0-.06.33.72.72,0,0,0,.12.42,1.32,1.32,0,0,0,.33.29,2.57,2.57,0,0,0,.47.23l.53.21c.18.07.35.15.53.24a2.29,2.29,0,0,1,.47.32,1.52,1.52,0,0,1,.32.46A1.41,1.41,0,0,1,93.09,140.19Z"/><path class="cls-2" d="M102.84,138.82a4.11,4.11,0,0,1-.19,1.29,2.67,2.67,0,0,1-.55,1,2.46,2.46,0,0,1-.91.66,3.16,3.16,0,0,1-1.27.24,3.3,3.3,0,0,1-1.23-.21,2.18,2.18,0,0,1-.87-.61,2.45,2.45,0,0,1-.52-1,4.28,4.28,0,0,1-.18-1.29,4.37,4.37,0,0,1,.19-1.29,2.8,2.8,0,0,1,.54-1,2.33,2.33,0,0,1,.91-.66,3.18,3.18,0,0,1,1.28-.24,3.3,3.3,0,0,1,1.23.21,2.18,2.18,0,0,1,.87.61,2.59,2.59,0,0,1,.52,1A4.28,4.28,0,0,1,102.84,138.82Zm-1.09.07a5,5,0,0,0-.08-.88,2.31,2.31,0,0,0-.29-.72,1.35,1.35,0,0,0-.54-.49,1.77,1.77,0,0,0-.84-.18,1.86,1.86,0,0,0-.81.16,1.47,1.47,0,0,0-.55.47,2,2,0,0,0-.32.71,3.72,3.72,0,0,0-.11.91,4.17,4.17,0,0,0,.09.88,2.08,2.08,0,0,0,.28.72,1.53,1.53,0,0,0,.55.49,1.74,1.74,0,0,0,.84.18,1.78,1.78,0,0,0,.8-.17,1.48,1.48,0,0,0,.56-.46,2.2,2.2,0,0,0,.32-.71A3.73,3.73,0,0,0,101.75,138.89Zm-2.3-4.72a.49.49,0,0,1-.59.61.63.63,0,0,1-.47-.13.65.65,0,0,1-.12-.46.73.73,0,0,1,.13-.48.9.9,0,0,1,.93,0A.69.69,0,0,1,99.45,134.17Zm2.25,0a.64.64,0,0,1-.13.48.68.68,0,0,1-.47.13.62.62,0,0,1-.46-.13.65.65,0,0,1-.12-.46.73.73,0,0,1,.12-.48.69.69,0,0,1,.47-.13.68.68,0,0,1,.47.13A.69.69,0,0,1,101.7,134.17Z"/><path class="cls-2" d="M111.13,133.67a.93.93,0,0,1,0,.29c0,.06-.06.09-.12.09a.3.3,0,0,1-.12,0l-.16-.06-.23-.07-.29,0a.7.7,0,0,0-.66.32,2.08,2.08,0,0,0-.2,1v.63h1.28l.09,0a.27.27,0,0,1,.07.08.47.47,0,0,1,0,.14,1.15,1.15,0,0,1,0,.2.87.87,0,0,1,0,.33.17.17,0,0,1-.16.1h-1.28v5a.15.15,0,0,1,0,.09l-.09.06a.57.57,0,0,1-.16,0l-.25,0-.26,0a.65.65,0,0,1-.16,0,.18.18,0,0,1-.08-.06.16.16,0,0,1,0-.09v-5h-2.56v5a.16.16,0,0,1,0,.09l-.08.06a.65.65,0,0,1-.17,0l-.25,0-.25,0a.65.65,0,0,1-.17,0,.28.28,0,0,1-.08-.06.16.16,0,0,1,0-.09v-5h-.8a.17.17,0,0,1-.16-.1.87.87,0,0,1,0-.33,1,1,0,0,1,0-.2.49.49,0,0,1,0-.14.27.27,0,0,1,.07-.08l.09,0h.8v-.54a3.73,3.73,0,0,1,.12-1,1.72,1.72,0,0,1,.34-.69,1.31,1.31,0,0,1,.57-.41,2.33,2.33,0,0,1,.79-.13,2.38,2.38,0,0,1,.49,0,2.94,2.94,0,0,1,.34.1.35.35,0,0,1,.17.17l0,.14a1.34,1.34,0,0,1,0,.21,1,1,0,0,1,0,.29.12.12,0,0,1-.12.1l-.11,0-.17-.07-.23-.06a1.29,1.29,0,0,0-.29,0,.68.68,0,0,0-.66.33,2.07,2.07,0,0,0-.19,1v.55h2.56v-.61a3.81,3.81,0,0,1,.12-1,1.86,1.86,0,0,1,.34-.69,1.41,1.41,0,0,1,.57-.4,2.15,2.15,0,0,1,.79-.13,2.37,2.37,0,0,1,.49,0,2.28,2.28,0,0,1,.34.11l.1.06a.36.36,0,0,1,.07.1l0,.15C111.12,133.52,111.13,133.59,111.13,133.67Z"/><path class="cls-2" d="M116.52,138.64a.45.45,0,0,1-.13.35.4.4,0,0,1-.28.1h-3.76a3.72,3.72,0,0,0,.09.86,1.72,1.72,0,0,0,.32.65,1.3,1.3,0,0,0,.58.42,2.28,2.28,0,0,0,.88.15,3.14,3.14,0,0,0,.72-.07,3.08,3.08,0,0,0,.55-.15,2.68,2.68,0,0,0,.39-.15.66.66,0,0,1,.22-.06l.08,0s0,0,.06.07a1,1,0,0,1,0,.12c0,.05,0,.12,0,.19s0,.11,0,.15,0,.07,0,.1a.12.12,0,0,1,0,.09.13.13,0,0,1-.06.07.81.81,0,0,1-.2.12,3.36,3.36,0,0,1-.45.15,6.07,6.07,0,0,1-.63.14,4.59,4.59,0,0,1-.76.06,3.62,3.62,0,0,1-1.24-.2,2.26,2.26,0,0,1-.89-.58,2.47,2.47,0,0,1-.54-1,4.3,4.3,0,0,1-.19-1.36,4.17,4.17,0,0,1,.19-1.32,2.76,2.76,0,0,1,.55-1,2.5,2.5,0,0,1,.87-.63,2.92,2.92,0,0,1,1.13-.22,2.68,2.68,0,0,1,1.15.22,2.13,2.13,0,0,1,1.22,1.44,3.51,3.51,0,0,1,.15,1Zm-1.06-.31a1.92,1.92,0,0,0-.36-1.3,1.41,1.41,0,0,0-1.15-.47,1.54,1.54,0,0,0-1.18.53,1.72,1.72,0,0,0-.3.57,1.85,1.85,0,0,0-.12.67Z"/><path class="cls-2" d="M123,141.74a.16.16,0,0,1,0,.09.18.18,0,0,1-.08.06.57.57,0,0,1-.16,0l-.25,0-.26,0a.57.57,0,0,1-.16,0,.18.18,0,0,1-.08-.06.16.16,0,0,1,0-.09V138.4a3.39,3.39,0,0,0-.07-.79,1.64,1.64,0,0,0-.23-.52,1,1,0,0,0-.37-.33,1.3,1.3,0,0,0-1.33.17,4.51,4.51,0,0,0-.82.82v4a.16.16,0,0,1,0,.09.18.18,0,0,1-.08.06.57.57,0,0,1-.16,0l-.26,0-.25,0a.57.57,0,0,1-.16,0,.23.23,0,0,1-.09-.06.29.29,0,0,1,0-.09V136a.24.24,0,0,1,0-.09.18.18,0,0,1,.08-.06.39.39,0,0,1,.14,0h.47a.39.39,0,0,1,.14,0,.22.22,0,0,1,.07.06.14.14,0,0,1,0,.09v.75a3.52,3.52,0,0,1,1-.79,2.15,2.15,0,0,1,1-.25,2.13,2.13,0,0,1,1,.2,1.77,1.77,0,0,1,.63.51,2.31,2.31,0,0,1,.35.76,5.19,5.19,0,0,1,.1,1Z"/><path class="cls-2" d="M127.79,141.32a1.12,1.12,0,0,1,0,.29.27.27,0,0,1-.07.16.56.56,0,0,1-.15.1l-.24.07L127,142l-.29,0a2.22,2.22,0,0,1-.77-.12,1.28,1.28,0,0,1-.52-.36,1.46,1.46,0,0,1-.29-.6,3.6,3.6,0,0,1-.09-.86v-3.34h-.8a.15.15,0,0,1-.15-.1.69.69,0,0,1-.06-.33,1.15,1.15,0,0,1,0-.2.46.46,0,0,1,.05-.14.16.16,0,0,1,.06-.08l.09,0h.8V134.5a.12.12,0,0,1,0-.08.13.13,0,0,1,.08-.06l.16-.05h.52a.5.5,0,0,1,.16.05.17.17,0,0,1,.08.06.12.12,0,0,1,0,.08v1.36h1.47l.09,0a.27.27,0,0,1,.07.08.47.47,0,0,1,0,.14,1.15,1.15,0,0,1,0,.2.69.69,0,0,1-.06.33.16.16,0,0,1-.15.1h-1.47v3.19a1.77,1.77,0,0,0,.18.89.66.66,0,0,0,.62.3,1,1,0,0,0,.26,0l.21-.06.15-.06.11,0,.07,0a.15.15,0,0,1,0,.06,1,1,0,0,1,0,.12A1.09,1.09,0,0,1,127.79,141.32Z"/><path class="cls-2" d="M130.22,141.74a.29.29,0,0,1,0,.09l-.09.06a.49.49,0,0,1-.15,0l-.27,0-.25,0a.57.57,0,0,1-.16,0,.18.18,0,0,1-.08-.06.16.16,0,0,1,0-.09v-8.48a.16.16,0,0,1,0-.09.18.18,0,0,1,.08-.06.53.53,0,0,1,.16,0H130a.46.46,0,0,1,.15,0l.09.06a.29.29,0,0,1,0,.09Z"/><path class="cls-2" d="M133.33,134.1a.71.71,0,0,1-.14.5.78.78,0,0,1-.52.13.71.71,0,0,1-.5-.13.67.67,0,0,1-.14-.49.71.71,0,0,1,.14-.5,1.07,1.07,0,0,1,1,0A.67.67,0,0,1,133.33,134.1Zm-.12,7.64a.16.16,0,0,1,0,.09l-.08.06a.57.57,0,0,1-.16,0l-.26,0-.26,0a.65.65,0,0,1-.16,0,.18.18,0,0,1-.08-.06.15.15,0,0,1,0-.09V136a.11.11,0,0,1,0-.08s0,0,.08-.07l.16,0h.52l.16,0a.27.27,0,0,1,.08.07.11.11,0,0,1,0,.08Z"/><path class="cls-2" d="M139.25,140.87a1.09,1.09,0,0,1,0,.19.44.44,0,0,1,0,.13.3.3,0,0,1,0,.1l-.1.12a1.19,1.19,0,0,1-.27.19,2.46,2.46,0,0,1-.43.21,2.63,2.63,0,0,1-.52.15,2.69,2.69,0,0,1-.57.06,2.92,2.92,0,0,1-1.1-.2,2.13,2.13,0,0,1-.79-.6,2.56,2.56,0,0,1-.49-1,4.63,4.63,0,0,1-.17-1.31,4.48,4.48,0,0,1,.21-1.45,2.64,2.64,0,0,1,.56-1,2.13,2.13,0,0,1,.85-.57,2.76,2.76,0,0,1,1-.19,3.07,3.07,0,0,1,.53.05,2.91,2.91,0,0,1,.47.13,2.69,2.69,0,0,1,.38.19,1.22,1.22,0,0,1,.25.19.77.77,0,0,1,.1.12.31.31,0,0,1,.05.1l0,.14v.19a1,1,0,0,1-.05.35.17.17,0,0,1-.14.09.33.33,0,0,1-.22-.1,3.38,3.38,0,0,0-.32-.23,2,2,0,0,0-.46-.23,1.75,1.75,0,0,0-.64-.11,1.3,1.3,0,0,0-1.15.58,3,3,0,0,0-.41,1.69,4,4,0,0,0,.11,1,2,2,0,0,0,.31.69,1.31,1.31,0,0,0,.49.42,1.65,1.65,0,0,0,.68.13,1.73,1.73,0,0,0,.63-.11,3.05,3.05,0,0,0,.48-.25l.33-.25a.48.48,0,0,1,.22-.11l.07,0,.06.09,0,.15C139.24,140.71,139.25,140.79,139.25,140.87Z"/><path class="cls-2" d="M145.56,141.74a.16.16,0,0,1,0,.09.28.28,0,0,1-.08.06.57.57,0,0,1-.16,0l-.25,0-.26,0a.57.57,0,0,1-.16,0,.18.18,0,0,1-.08-.06.16.16,0,0,1,0-.09V138.4a3.31,3.31,0,0,0-.08-.79,1.63,1.63,0,0,0-.22-.52,1,1,0,0,0-.38-.33,1.25,1.25,0,0,0-.53-.11,1.34,1.34,0,0,0-.79.28,4.21,4.21,0,0,0-.82.82v4a.16.16,0,0,1,0,.09l-.08.06a.57.57,0,0,1-.16,0l-.26,0-.26,0a.65.65,0,0,1-.16,0,.28.28,0,0,1-.08-.06.15.15,0,0,1,0-.09v-8.48a.15.15,0,0,1,0-.09.28.28,0,0,1,.08-.06.62.62,0,0,1,.16,0h.52l.16,0,.08.06a.16.16,0,0,1,0,.09v3.42a3.5,3.5,0,0,1,.9-.71,2.16,2.16,0,0,1,1.88,0,1.81,1.81,0,0,1,.64.51,2.11,2.11,0,0,1,.34.76,4.51,4.51,0,0,1,.11,1Z"/><path class="cls-2" d="M152.34,138.64a.39.39,0,0,1-.41.45h-3.76a3.22,3.22,0,0,0,.1.86,1.59,1.59,0,0,0,.32.65,1.3,1.3,0,0,0,.58.42,2.26,2.26,0,0,0,.87.15,3.23,3.23,0,0,0,.73-.07,3.08,3.08,0,0,0,.55-.15,3,3,0,0,0,.38-.15.7.7,0,0,1,.23-.06l.08,0a.13.13,0,0,1,.05.07.21.21,0,0,1,0,.12,1.09,1.09,0,0,1,0,.19v.15s0,.07,0,.1l0,.09-.06.07a.75.75,0,0,1-.21.12,3.16,3.16,0,0,1-.44.15,6.07,6.07,0,0,1-.63.14,4.63,4.63,0,0,1-.77.06,3.52,3.52,0,0,1-1.23-.2,2.26,2.26,0,0,1-.89-.58,2.49,2.49,0,0,1-.55-1,4.62,4.62,0,0,1-.18-1.36,4.17,4.17,0,0,1,.19-1.32,2.62,2.62,0,0,1,.55-1,2.46,2.46,0,0,1,.86-.63,3,3,0,0,1,1.14-.22A2.61,2.61,0,0,1,151,136a2.1,2.1,0,0,1,.78.58,2.15,2.15,0,0,1,.45.86,3.51,3.51,0,0,1,.14,1Zm-1.05-.31a1.92,1.92,0,0,0-.37-1.3,1.41,1.41,0,0,0-1.14-.47,1.52,1.52,0,0,0-.69.15,1.41,1.41,0,0,0-.49.38,1.94,1.94,0,0,0-.31.57,2.41,2.41,0,0,0-.12.67Z"/><path class="cls-2" d="M158.86,141.74a.16.16,0,0,1,0,.09l-.08.06a.57.57,0,0,1-.16,0l-.25,0-.27,0a.49.49,0,0,1-.15,0l-.09-.06a.29.29,0,0,1,0-.09V138.4a3.31,3.31,0,0,0-.08-.79,1.63,1.63,0,0,0-.22-.52,1,1,0,0,0-.38-.33,1.25,1.25,0,0,0-.53-.11,1.31,1.31,0,0,0-.79.28,4.53,4.53,0,0,0-.83.82v4a.29.29,0,0,1,0,.09l-.08.06a.57.57,0,0,1-.16,0l-.26,0-.26,0a.57.57,0,0,1-.16,0,.18.18,0,0,1-.08-.06.15.15,0,0,1,0-.09V136a.13.13,0,0,1,0-.09.14.14,0,0,1,.07-.06l.15,0h.46l.15,0,.07.06a.13.13,0,0,1,0,.09v.75a3.52,3.52,0,0,1,1-.79,2.19,2.19,0,0,1,1-.25,2.13,2.13,0,0,1,1,.2,1.77,1.77,0,0,1,.63.51,2,2,0,0,1,.35.76,4.51,4.51,0,0,1,.11,1Z"/><path class="cls-2" d="M169.3,141.73a.22.22,0,0,1,0,.09.22.22,0,0,1-.09.07.66.66,0,0,1-.18,0l-.3,0-.27,0a.39.39,0,0,1-.17,0,.25.25,0,0,1-.1-.08.67.67,0,0,1-.06-.12l-.75-1.94c-.09-.22-.18-.42-.28-.61a1.83,1.83,0,0,0-.34-.47,1.33,1.33,0,0,0-.46-.31,1.56,1.56,0,0,0-.64-.11h-.73v3.49a.12.12,0,0,1,0,.09.15.15,0,0,1-.09.06.53.53,0,0,1-.17,0l-.26,0-.26,0a.61.61,0,0,1-.17,0,.15.15,0,0,1-.09-.06s0,0,0-.09v-7.6a.41.41,0,0,1,.13-.35.44.44,0,0,1,.27-.09h2.26l.38,0a3.06,3.06,0,0,1,.84.26,2.15,2.15,0,0,1,.61.45,1.86,1.86,0,0,1,.37.62,2.45,2.45,0,0,1,.12.78,2.13,2.13,0,0,1-.11.74,1.73,1.73,0,0,1-.32.58,2.1,2.1,0,0,1-.5.43,3,3,0,0,1-.65.31,1.76,1.76,0,0,1,.37.23,1.6,1.6,0,0,1,.3.33,2.25,2.25,0,0,1,.27.43c.09.17.17.35.26.56l.73,1.81c.06.15.1.26.12.32A.42.42,0,0,1,169.3,141.73ZM167.66,136a1.4,1.4,0,0,0-.22-.81,1.22,1.22,0,0,0-.72-.48,1.93,1.93,0,0,0-.36-.06,3.87,3.87,0,0,0-.52,0h-.92v2.76H166a2.39,2.39,0,0,0,.75-.1,1.53,1.53,0,0,0,.52-.29,1.11,1.11,0,0,0,.31-.44A1.47,1.47,0,0,0,167.66,136Z"/><path class="cls-2" d="M175.41,138.64a.39.39,0,0,1-.41.45h-3.76a3.22,3.22,0,0,0,.1.86,1.71,1.71,0,0,0,.31.65,1.36,1.36,0,0,0,.58.42,2.28,2.28,0,0,0,.88.15,3.29,3.29,0,0,0,.73-.07,3.33,3.33,0,0,0,.55-.15,3,3,0,0,0,.38-.15.7.7,0,0,1,.23-.06l.08,0a.13.13,0,0,1,0,.07,1,1,0,0,1,0,.12,1.09,1.09,0,0,1,0,.19.66.66,0,0,1,0,.15s0,.07,0,.1l0,.09-.06.07a.75.75,0,0,1-.21.12,3.16,3.16,0,0,1-.44.15c-.19.05-.4.1-.63.14a4.72,4.72,0,0,1-.77.06,3.52,3.52,0,0,1-1.23-.2,2.29,2.29,0,0,1-.9-.58,2.47,2.47,0,0,1-.54-1,4.6,4.6,0,0,1-.19-1.36,4.47,4.47,0,0,1,.19-1.32,2.76,2.76,0,0,1,.55-1,2.5,2.5,0,0,1,.87-.63,3,3,0,0,1,1.14-.22A2.61,2.61,0,0,1,174,136a2.1,2.1,0,0,1,.78.58,2.43,2.43,0,0,1,.45.86,3.86,3.86,0,0,1,.14,1Zm-1-.31A1.92,1.92,0,0,0,174,137a1.41,1.41,0,0,0-1.15-.47,1.48,1.48,0,0,0-.68.15,1.32,1.32,0,0,0-.49.38,1.74,1.74,0,0,0-.31.57,2.41,2.41,0,0,0-.12.67Z"/><path class="cls-2" d="M181.11,140.87a1.09,1.09,0,0,1,0,.19.44.44,0,0,1,0,.13.3.3,0,0,1,0,.1.58.58,0,0,1-.1.12,1.19,1.19,0,0,1-.27.19,2.15,2.15,0,0,1-.43.21,2.53,2.53,0,0,1-.51.15,2.78,2.78,0,0,1-.58.06,2.86,2.86,0,0,1-1.09-.2,2.09,2.09,0,0,1-.8-.6,2.72,2.72,0,0,1-.49-1,4.63,4.63,0,0,1-.17-1.31,4.48,4.48,0,0,1,.21-1.45,2.8,2.8,0,0,1,.57-1,2.1,2.1,0,0,1,.84-.57,2.76,2.76,0,0,1,1.05-.19,3.07,3.07,0,0,1,.53.05,2.91,2.91,0,0,1,.47.13,2.36,2.36,0,0,1,.39.19,1.42,1.42,0,0,1,.24.19l.11.12a1,1,0,0,1,0,.1.58.58,0,0,1,0,.14c0,.05,0,.11,0,.19a.76.76,0,0,1-.06.35.17.17,0,0,1-.14.09.33.33,0,0,1-.22-.1,3.13,3.13,0,0,0-.31-.23,2.29,2.29,0,0,0-.47-.23,1.69,1.69,0,0,0-.63-.11,1.31,1.31,0,0,0-1.16.58,3,3,0,0,0-.4,1.69,4,4,0,0,0,.1,1,2,2,0,0,0,.31.69,1.27,1.27,0,0,0,.5.42,1.57,1.57,0,0,0,.67.13,1.83,1.83,0,0,0,.64-.11,2.92,2.92,0,0,0,.47-.25l.34-.25a.42.42,0,0,1,.21-.11l.08,0a.36.36,0,0,1,0,.09s0,.09,0,.15A1.48,1.48,0,0,1,181.11,140.87Z"/><path class="cls-2" d="M187.42,141.74a.16.16,0,0,1,0,.09.18.18,0,0,1-.08.06.57.57,0,0,1-.16,0l-.25,0-.26,0a.57.57,0,0,1-.16,0l-.08-.06a.16.16,0,0,1,0-.09V138.4a3.39,3.39,0,0,0-.07-.79,1.64,1.64,0,0,0-.23-.52,1,1,0,0,0-.37-.33,1.3,1.3,0,0,0-1.33.17,4.51,4.51,0,0,0-.82.82v4a.16.16,0,0,1,0,.09.18.18,0,0,1-.08.06.57.57,0,0,1-.16,0l-.26,0-.25,0a.57.57,0,0,1-.16,0,.23.23,0,0,1-.09-.06.29.29,0,0,1,0-.09v-8.48a.29.29,0,0,1,0-.09.23.23,0,0,1,.09-.06.53.53,0,0,1,.16,0h.51a.53.53,0,0,1,.16,0,.18.18,0,0,1,.08.06.16.16,0,0,1,0,.09v3.42a3.37,3.37,0,0,1,.91-.71,2.05,2.05,0,0,1,.92-.23,2.13,2.13,0,0,1,1,.2,1.77,1.77,0,0,1,.63.51,2.12,2.12,0,0,1,.35.76,5.19,5.19,0,0,1,.1,1Z"/><path class="cls-2" d="M192.18,141.32a2.07,2.07,0,0,1,0,.29.34.34,0,0,1-.08.16.44.44,0,0,1-.15.1l-.23.07-.28.05-.29,0a2.13,2.13,0,0,1-.76-.12,1.25,1.25,0,0,1-.53-.36,1.46,1.46,0,0,1-.29-.6,3.6,3.6,0,0,1-.09-.86v-3.34h-.8a.15.15,0,0,1-.15-.1.69.69,0,0,1-.06-.33.59.59,0,0,1,0-.2.29.29,0,0,1,0-.14.24.24,0,0,1,.06-.08l.09,0h.8V134.5a.24.24,0,0,1,0-.08.13.13,0,0,1,.08-.06l.16-.05h.52a.5.5,0,0,1,.16.05.17.17,0,0,1,.08.06.13.13,0,0,1,0,.08v1.36H192l.09,0a.27.27,0,0,1,.07.08.47.47,0,0,1,0,.14,1.15,1.15,0,0,1,0,.2.69.69,0,0,1-.06.33.15.15,0,0,1-.15.1h-1.46v3.19a1.78,1.78,0,0,0,.17.89.66.66,0,0,0,.62.3,1,1,0,0,0,.26,0l.21-.06.15-.06.12,0,.06,0a.15.15,0,0,1,0,.06,1,1,0,0,1,0,.12A1.09,1.09,0,0,1,192.18,141.32Z"/><path class="cls-2" d="M197.15,140.19a1.78,1.78,0,0,1-.16.78,1.59,1.59,0,0,1-.46.57,2.07,2.07,0,0,1-.71.36,3.28,3.28,0,0,1-.91.12,3.58,3.58,0,0,1-.58-.05,3.06,3.06,0,0,1-.5-.12l-.37-.15a1.21,1.21,0,0,1-.22-.14.35.35,0,0,1-.1-.18,1.3,1.3,0,0,1,0-.31,1.34,1.34,0,0,1,0-.21l0-.13a.11.11,0,0,1,.06-.07.11.11,0,0,1,.08,0,.53.53,0,0,1,.2.08l.34.19a3.05,3.05,0,0,0,.47.19,2.35,2.35,0,0,0,.63.08,2.28,2.28,0,0,0,.48-.05,1.33,1.33,0,0,0,.38-.17.84.84,0,0,0,.33-.69.69.69,0,0,0-.13-.41,1.12,1.12,0,0,0-.32-.29,3.94,3.94,0,0,0-.46-.23l-.52-.2a5.12,5.12,0,0,1-.53-.25,1.92,1.92,0,0,1-.46-.33,1.43,1.43,0,0,1-.33-.47,1.75,1.75,0,0,1,0-1.3,1.43,1.43,0,0,1,.39-.54,2.13,2.13,0,0,1,.65-.37,2.76,2.76,0,0,1,.91-.14,2.45,2.45,0,0,1,.46,0,3.52,3.52,0,0,1,.41.1,1.55,1.55,0,0,1,.31.12.7.7,0,0,1,.2.12l.09.09,0,.08s0,.07,0,.12a.86.86,0,0,1,0,.17,1.15,1.15,0,0,1,0,.19l0,.13s0,.06-.06.07a.08.08,0,0,1-.07,0,.33.33,0,0,1-.16-.07l-.28-.15-.4-.15a2.13,2.13,0,0,0-.53-.07,1.33,1.33,0,0,0-.47.07.84.84,0,0,0-.34.17.7.7,0,0,0-.19.26.72.72,0,0,0-.07.33.66.66,0,0,0,.13.42,1,1,0,0,0,.33.29,2.47,2.47,0,0,0,.46.23l.53.21a5.05,5.05,0,0,1,.53.24,2.29,2.29,0,0,1,.47.32,1.39,1.39,0,0,1,.33.46A1.56,1.56,0,0,1,197.15,140.19Z"/></g></g></svg>